<?xml version="1.0" encoding="utf-8"?>
<!-- Generator: Adobe Illustrator 21.1.0, SVG Export Plug-In . SVG Version: 6.00 Build 0)  -->
<svg version="1.1" xmlns="http://www.w3.org/2000/svg" xmlns:xlink="http://www.w3.org/1999/xlink" x="0px" y="0px"
	 viewBox="0 0 1366 768" style="enable-background:new 0 0 1366 768;" xml:space="preserve">
<style type="text/css">
	.st0{display:none;}
	.st1{display:inline;fill:none;stroke:#FCF875;stroke-miterlimit:10;}
	.st2{fill:#00A99D;}
	.st3{fill:#F7B5DD;}
	.st4{fill:#FFFBB6;}
	.st5{fill:#ACD7E5;}
	.st6{fill:#E8BA8B;}
	.st7{fill:#3B6B22;}
	.st8{fill:#FFFFFF;}
	.st9{fill:#FBB03B;}
</style>
<g id="Layer_1" class="st0">
	<path class="st1" d="M287.5,598.5c0-262.5,177.1-475,396-475"/>
	<path class="st1" d="M1001.5,598.5c0-262.5-142.2-475-318-475"/>
</g>
<g id="Layer_2">
	<g>
		<g>
			<path class="st2" d="M316.5,452.4c0.6-6.2-2.6-11.5-6.3-16.2c-3.7-4.8-7.1-9.2-12.2-12.5c-8.5-5.5-19.4-8.6-29.5-6.6
				c-10.8,2.2-18.1,11.1-19.2,21.8c-0.5,4.9-0.2,9.9,0.4,14.7c0.4,3.4,1.1,6.5,3,9.4c1.5,2.4,3.7,4.4,5.3,6.8
				c3.3,5.1,6.1,9.4,10.9,13.2c5.3,4.2,10,8.6,14.6,13.5c9,9.4,13.7,19.8,18.9,31.5c2.5,5.7,5.7,11.3,7.1,17.4
				c1.6,6.6,1.8,13.4,3.5,20.1c1.4,5.4,1.5,12.2-0.1,17.6c-0.6,2.1-1.5,4.2-2.8,6c-0.7,1,0,0.8-1.3,0.7c-4.6-0.3-7.3-4.4-10-7.7
				c-4.6-5.5-9.7-10.5-14.2-16.1c-4.7-6-7.9-12.6-11-19.5c-2.2-5-6.2-10.5-5.9-16.1c-6,0-12,0-18,0c0.2,7.2,2,13.8,4.7,20.4
				c2.7,6.6,5,13.6,8.5,19.8c6,10.6,14.6,17.8,24.6,24.3c8,5.2,18.5,12,28.5,9.5c13.2-3.3,10.3-16.2,10.5-26.4
				c0.1-6.6,0.3-12.5-1.2-19c-1.7-7.6-2.1-15.3-4-22.9c-1.7-7.1-4.5-13.9-7-20.7c-1.1-2.9-1.2-5.8-2.1-8.7c-1.2-3.6-3.5-6.6-5.5-9.8
				c-7-10.8-16-18-26.4-25.4c-9.2-6.5-19-13.6-19.7-25.7c-0.3-5.5-0.1-11.1,3.6-15.5c2.8-3.3,8.4-4.8,12.6-3.7
				c7,2,11.8,8.8,16.1,14.2c1.8,2.2,3.8,4,5.7,6.1c0.7,0.7,1.5,1.5,2.1,2.2c0.4,0.5,1.1,3,1.1,1.5c3-3,6-6,9-9
				c-0.5,0.1-1,0.1-1.5,0.2c-4.8,0.6-9,3.7-9,9c0,4.4,4.1,9.6,9,9c0.5-0.1,1-0.1,1.5-0.2c4.8-0.6,9.1-3.6,9-9
				c-0.1-6.2-3.5-11-7.5-15.4c-4-4.5-7.9-9.1-12-13.5c-9.8-10.5-23.1-16.5-37.3-11.3c-12.1,4.4-19,15.4-20.2,28
				c-1.3,13.9,2.8,26.3,12.7,36.1c8.5,8.4,19.3,13.9,28.1,22c4.2,3.9,7.2,8.5,10.3,13.3c1.7,2.7,1.5,4.2,2.2,7.3
				c1,4,2.9,7.9,4.2,11.8c2.2,6.4,4.2,12.6,5.3,19.2c0.6,3.5,1,7.1,1.6,10.6c0.6,3.7,1.9,7.3,1.9,11c0,5.4-0.3,10.6,0,16
				c0.1,1.1-0.1,2.5,0.1,3.5c0.3,1.8-0.8,0.7,1.3-1.2c0.6-0.3,1.2-0.7,1.8-1c-1,0.3-1.1,0.3-0.2,0.1c-0.3-0.3-1.4-0.2-2.6-0.6
				c-4.4-1.4-8.4-4.2-12.3-6.7c-4.5-2.9-8.8-5.7-12.4-9.7c-4.8-5.2-7.5-11.2-10.2-17.7c-2.9-7.1-6.5-14.1-6.7-21.9
				c-0.3-11.6-17.4-11.5-18,0c-0.3,6.1,2,11.7,4.5,17.1c2.7,5.9,5.3,11.9,8.3,17.6c6.1,11.7,15.9,20.9,24.4,30.8
				c6.9,8.1,17.2,14.7,28.3,11c11.8-4,16.2-18.8,16.7-29.9c0.3-6.7-0.7-12.9-2.4-19.4c-1.8-6.7-1.4-13.6-3.6-20.2
				c-2.1-6.3-5.3-12.3-8-18.3c-2.5-5.7-4.8-11.4-7.7-16.9c-6.1-11.3-16.1-22-26.2-29.9c-2.2-1.7-4.6-3.3-6.5-5.4
				c-1.7-1.8-2.8-4-4.1-6.1c-1.5-2.3-3.7-4.3-5.1-6.6c-1-1.8-1-3.3-1.2-5.5c-0.3-3.7-1.2-9,1.4-12c2.1-2.4,5.8-2.5,9-2
				c4.4,0.7,8.9,2.5,12.4,5.4c3.1,2.5,8.9,8.4,8.5,12.4c-0.5,4.8,4.5,9,9,9C312.8,461.4,316.1,457.2,316.5,452.4L316.5,452.4z"/>
		</g>
	</g>
	<g>
		<g>
			<path class="st2" d="M321.6,309.6c-6,0-13.2-1.1-18.8,1.7c-4.9,2.5-6.8,7.2-8.4,12.1c-2.1,6.2-2,12.3-2,18.7
				c0.1,7.5-0.5,14.5,1.2,21.9c1.4,6.2,3.8,12.2,5.8,18.2c2.3,6.9,4.1,13.9,6.4,20.8c4.2,12.9,7.3,25.5,15.5,36.6
				c7.1,9.5,16.7,18.7,29,19.4c5,0.3,11.1,0.2,15.9-1.4c6.1-2.2,10.4-7.2,13.1-12.9c3-6.4,2.6-12.2,3.3-19
				c0.8-7.3,1.8-14.2,1.8-21.6c-0.2-13.7-3.1-27.8-6.1-41.1c-1.4-6.2-3.9-12.5-7.6-17.7c-2.4-3.2-5.5-5.6-8.1-8.6
				c-2.4-2.8-4.4-5.5-7.3-7.9c-5.9-4.7-12.1-9.2-19-12.2c-6.2-2.7-12.6-7.7-19.6-6.9c-4.8,0.5-9,3.8-9,9c0,4.5,4.1,9.5,9,9
				c3.6-0.4-0.3-0.7,1.3,0c0.8,0.4,1.6,0.9,2.4,1.4c2.4,1.3,4.9,2.3,7.4,3.4c4.5,2,8.6,4.6,12.5,7.5c4.3,3.1,6.9,6.6,10.3,10.4
				c3.3,3.6,6.3,6,8.3,10.7c3.7,9.1,4.9,20.1,6.5,29.8c1.8,10.8,1.1,21.3-0.3,32.1c-0.8,6.1,1.1,17.7-7.5,18.2
				c-3.1,0.2-7.4,0.8-10-0.5c-3.3-1.7-6.8-5.9-9.3-8.5c-6.8-7.1-10.2-17.2-12.8-26.5c-2.9-10.4-6.1-21-9.6-31.2
				c-1.9-5.5-4-11-5.1-16.6c-1-5.5-0.1-11.5-0.2-17.1c0-2.5-0.3-5.2,0.1-7.8c0.3-1.9,1.9-5.2,1.9-6.4c0,0.5,1.2-1.9-0.5,0.2
				c-1.3,1.6-1.5,0.5-0.3,1.1c1.9,1,7.9,0,10,0C333.1,327.6,333.2,309.6,321.6,309.6L321.6,309.6z"/>
		</g>
	</g>
	<g>
		<g>
			<path class="st2" d="M395.5,339.1c-0.1-11.9-1.4-24.8-5.1-36.1c-2-5.9-1.5-12.1-3.2-18.1c-1.6-5.5-3.3-10.8-4.6-16.4
				c-1.4-5.8-2.8-11.5-4-17.3c-1.1-5.6-1.4-11.3-2.5-16.9c-1-5.5-2.7-10.8-3.6-16.3c-0.4-2.5-0.6-5.1-1.3-7.6
				c-0.2-0.8-0.7-4.2-1-3.2c-3.7,2.1-7.4,4.2-11.1,6.3c-2.9-1-0.7,0,0.3,1.3c1,1.2,1.9,2.6,2.9,3.8c2,2.3,4.4,4.4,6.5,6.6
				c5.9,5.9,11.7,11.9,17.7,17.7c5.3,5.1,11.1,9.5,16.4,14.7c5.3,5.1,10.9,10.1,17.5,13.4c6.5,3.3,12.8-0.9,13.5-7.8
				c0.4-3.7-0.9-7.2-1.9-10.7c-1.1-4.1-1.9-8.3-3-12.5c-1.9-7.6-3.9-15.1-5.4-22.7c-0.6-3.1-2.3-5.8-3.2-8.6c-0.7-2.3-0.6-5.4-1-7.9
				c-1-6.5-3.5-12.7-9.5-16.1c-8.3-4.6-16.1,4.4-12.3,12.3c0.8,1.8,2.8,3.4,3.4,5.3c0.6,1.6-0.2,3.9-0.3,5.7
				c-0.2,5.7,2.2,10.5,3.5,16c1.4,5.8,2.5,11.4,4.2,17.1c1.7,5.6,2.3,11.3,4.6,16.7c2.1,5.1,3.4,10.1,4.9,15.4
				c1.6,5.7,3.9,11,5.7,16.6c1.7,5.3,2.7,10.7,4.4,16c1.7,5.3,3.9,10.3,5,15.8c0.9,4.8,6.7,7.5,11.1,6.3c5-1.4,7.2-6.3,6.3-11.1
				c-1-5.5-3.2-10.5-5-15.8c-1.8-5.5-2.8-11.3-4.7-16.8c-3.8-11.1-7-22.4-11.3-33.3c-2-5.2-2.5-10.9-4.3-16.3
				c-1.8-5.6-2.5-11.4-4.1-17c-0.7-2.6-2.1-5.1-2.4-7.8c-0.4-2.6,0.5-5.3,0.3-8c-0.3-5.8-3.6-9-5.9-13.9c-4.1,4.1-8.2,8.2-12.3,12.3
				c-0.2-0.1-0.2-2.3,0.4,0.6c0.1,0.5,0.4,1.7,0.5,2.4c0.3,1.7,0.4,3.4,0.6,5.1c0.7,6,3.4,11.3,4.5,17.2c1.2,6.5,3.3,12.9,4.9,19.4
				c0.9,3.6,1.7,7.1,2.5,10.7c0.6,2.5,1.9,5.2,1.6,7.7c4.5-2.6,9-5.2,13.5-7.8c-6.8-3.5-11.8-8.9-17.3-14.1
				c-5.6-5.2-11.6-9.9-17-15.4c-5.7-5.7-11.4-11.4-17.1-17.1c-4.6-4.6-7.6-10.5-14.1-12.7c-4.8-1.6-9.6,1.9-11.1,6.3
				c-1.6,4.8,0.3,9.2,1.3,13.9c1.2,5.6,1.9,11.4,3.3,17c2.8,11.4,3.7,23.1,6.5,34.6c1.3,5.6,2.6,11.2,4.4,16.7
				c0.9,2.7,2.1,5.6,2.5,8.5c0.5,3.1,0.2,6.3,0.7,9.5c1.1,6.1,3.4,11.8,4.4,18c1,6.1,1.5,12.3,1.6,18.6
				C377.6,350.7,395.6,350.7,395.5,339.1L395.5,339.1z"/>
		</g>
	</g>
	<g>
		<g>
			<path class="st2" d="M435.3,202.4c-0.1,7.4,3.2,15,5.6,21.8c2.4,6.8,5.5,12.7,11.5,17c11.2,7.9,29.3,8.2,37.9-3.5
				c4.2-5.7,3.3-12.6,3.5-19.3c0.3-8,0.6-16-1.7-23.7c-1-3.5-2.1-6.9-2.9-10.4c-0.9-3.8-0.7-7.7-1.2-11.6
				c-1.1-7.5-3.1-14.6-2.8-22.3c0.2-4.8-0.8-9.3-1.3-14c-0.5-4.6-0.8-9.2-1.3-13.7c-1.1-9.3-3.8-18.4-3.9-27.8
				c-0.2-11.6-18.2-11.6-18,0c0.1,8.7,2.3,17,3.6,25.6c1.3,8.2,2.2,16.8,3,25.1c0.4,4.6-0.3,9.2,0.4,13.8c0.5,4,1.1,7.9,1.9,11.8
				c1.6,8.1,1.8,16.2,4.1,24.2c1.1,3.6,2.2,6.9,2.4,10.6c0.2,4.1,0,8.2-0.2,12.2c-0.1,2-0.1,3.9-0.1,5.9c0-0.3-0.3,3.8,0.2,2.5
				c-0.6,1.5-2.1,2-4,2c-4.8,0-9.6-1.1-12.1-5.6c-1.9-3.4-2.8-7.5-4-11.1c-1-3.1-2.5-6.4-2.4-9.7
				C453.5,190.8,435.5,190.8,435.3,202.4L435.3,202.4z"/>
		</g>
	</g>
	<g>
		<g>
			<path class="st2" d="M538.2,207.2c0-18,0.8-36.3-0.1-54.3c-0.5-8.8-2.1-17.4-3.5-26.1c-1.3-8.2-1.7-16.5-2.3-24.7
				c-0.3-4-0.6-8-0.7-11.9c-0.1-3.3,0.7-7.3,0.2-10.5c-0.1-0.8,1.9,1.2,0.4-1.4c0.6,1-7.1,1.4-6.2,3.3c0.2,0.4,1.5,1.1,2,1.4
				c2.5,2.1,4.7,4.9,6.6,7.5c4.6,6.1,7.7,13,10.9,19.9c1.6,3.3,3.6,5.9,5.8,8.8c2,2.6,3.1,5.7,4.7,8.6c4.2,7.8,8.1,15.4,13.4,22.4
				c2.8,3.8,5.2,7.6,7.5,11.7c1.9,3.5,4.8,6.2,6.7,9.6c5.9,10,21.4,0.9,15.5-9.1c-1.8-3.2-4.5-5.6-6.3-8.8c-2.3-4.1-4.5-8-7.3-11.7
				c-5.5-7.3-9.6-15.1-14-23.1c-3.9-7.3-8.8-13.7-12.3-21.2c-3.8-8.2-8.3-15.5-14.1-22.4c-4.5-5.3-10.6-11.7-18.2-11.5
				c-9.9,0.2-12.9,9.8-13.4,18c-0.5,9,0.5,18,1.2,26.9c0.7,10,2,19.8,3.6,29.7c3.7,22.6,1.9,46.2,1.9,69
				C520.2,218.7,538.2,218.8,538.2,207.2L538.2,207.2z"/>
		</g>
	</g>
	<g>
		<g>
			<path class="st2" d="M541.5,145c0,0.2-1.4,2,0.3-0.6c0.3-0.4,0.6-0.9,0.9-1.3c1.3-1.8,3-3.4,4.5-5.1c3.7-4.3,6.2-9.4,10.1-13.5
				c8-8.4-4.7-21.1-12.7-12.7c-4.8,5-8,11-12.5,16.1c-4.3,4.8-8.8,10.2-8.6,17.1C523.9,156.6,541.9,156.6,541.5,145L541.5,145z"/>
		</g>
	</g>
	<g>
		<g>
			<path class="st2" d="M757.4,71.3c-1.3,4.3-0.9,8.6-1.1,13.1c-0.2,5-0.9,10-1.4,14.9c-1.1,10.7-2.4,21.3-3.1,32
				c-0.6,10.3-1.7,20.5-2.2,30.8c-0.4,9.8,0.3,20.5-1.7,30.1c-1.1,5.1,1.5,9.2,6.3,11.1c9.4,3.6,18.4-3.6,24.6-9.8
				c7.1-7.1,11.6-15.1,16.2-23.9c4.2-8,9.8-17.6,5.1-26.7c-5.3-10.4-17.5-8.9-26.4-13.9c1.1,4.1,2.2,8.2,3.2,12.3
				c-0.9,1.5-0.2,0.4,1.5-0.1c1.1-0.3,2.3-0.5,3.4-0.9c3.2-1.1,5.9-2.8,8.6-4.7c6.3-4.3,13.5-7.5,18.9-13c2.5-2.6,3.9-5.5,5.2-8.8
				c1.1-2.7,3.1-4.5,4.5-7.1c4-7.1,5.3-16.1,3.6-24.1c-1.5-6.9-5.1-15.4-9.7-20.9c-4-4.6-10.3-6.5-16-8.1c-7.7-2.2-16-2-22.8,2.5
				c-5.5,3.6-12.7,7.1-15.9,13.1c-5.5,10.2,10.1,19.3,15.5,9.1c0.7-1.3,2.4-1.9,3.7-2.7c2-1.2,3.8-2.7,5.8-3.9
				c4.6-2.9,9.5-0.5,14.3,1.1c0.2,0.1,2.3,1,1.5,0.5c0.3,0.2,1,0.9,0.6,0.4c1.5,1.8,2.4,4.7,3.4,6.8c2.5,5.3,3.3,10.5,1,16
				c-0.9,2.1-2.3,3.4-3.6,5.3c-1.5,2.2-1.9,5-3.3,7.2c-2.3,3.7-7.4,5.8-11,8c-4,2.4-7.5,5.5-12,6.7c-5.4,1.5-9.8,3.5-12.9,8.5
				c-2.5,4.1-1,10,3.2,12.3c3.3,1.9,6.9,3.2,10.6,4.2c2.6,0.7,7.2,1,9.4,3c-1.7-1.5-1,0.7-1.9,2.7c-1.1,2.6-2.7,5-4,7.4
				c-3.1,6-6,11.9-10.7,16.9c-2,2.1-3.9,4.3-6.2,6c-0.7,0.5-1.7,0.9-2.4,1.5c0.1-0.1,2.3,0.8-0.4-0.2c2.1,3.7,4.2,7.4,6.3,11.1
				c2.1-9.9,1.3-20,2.1-30c0.8-10.6,1.4-21.2,2.2-31.9c0.8-10.4,1.6-20.6,2.8-31c0.6-5.1,1.1-10.3,1.6-15.4
				c0.4-4.1-0.4-8.7,0.8-12.6C778.1,65,760.8,60.2,757.4,71.3L757.4,71.3z"/>
		</g>
	</g>
	<g>
		<g>
			<path class="st2" d="M828.1,231.5c5.6-17.3,11.2-34.5,16.8-51.8c2.7-8.4,5.5-16.9,8.2-25.3c2.1-6.6,3.9-13.5,6.7-19.9
				c2.2-5,5.2-9.5,10.4-11.5c6-2.3,14.2-2.3,20,0.7c2,1.1,3.2,2.8,4.2,4.8c1.6,3.1,1.6,4.9,0.5,8.2c-1.1,3.3-2.3,6.6-3.3,9.9
				c-1.2,3.8-2.4,4.8-5.4,7.3c-3.1,2.6-5.9,3.7-9.5,5.5c-3.3,1.7-5.6,4.2-9.1,5.2c-3.6,0.9-7.1,2.2-10.7,3.1
				c-3.7,0.9-7.5-0.9-11.4-0.5c-3.7,0.4-7.9,2.5-8.7,6.6c-1,5.3,0.5,9.4,3.4,13.7c2.6,3.9,4.4,8.3,6.7,12.3
				c2.1,3.7,4.8,7.3,6.3,11.3c1,2.7,1.6,5.4,3,7.9c1.2,2,2.9,3.7,4.2,5.7c6.2,9.7,21.8,0.7,15.5-9.1c-1.2-1.8-2.9-3.4-3.9-5.2
				c-0.9-1.6-1.2-3.3-1.8-4.9c-1.3-3.7-3.3-7-5.3-10.3c-2-3.4-4-6.9-5.7-10.5c-0.9-1.8-1.6-3.5-2.7-5.2c-0.5-0.7-1.1-1.5-1.6-2.2
				c-0.9-1.9-1.2-1.5-0.8,1.3c-2.9,2.2-5.8,4.4-8.7,6.6c4.3-0.5,8.5,1.3,12.9,0.6c4.5-0.7,8.9-2.5,13.2-3.6c4.4-1.1,7.8-3,11.5-5.5
				c4-2.7,8.6-3.9,12.4-7c3.5-2.8,7.2-5.6,9.7-9.4c2.6-4,3.6-8.7,5-13.1c1.5-4.5,3.6-8.8,3.7-13.7c0.1-4.9-1.6-9.7-3.9-14
				c-9.5-17.3-34.5-20.1-50.8-11.1c-16.2,9-19.9,30.6-25.1,46.6c-7.8,23.9-15.5,47.8-23.3,71.7C807.2,237.7,824.6,242.5,828.1,231.5
				L828.1,231.5z"/>
		</g>
	</g>
	<g>
		<g>
			<path class="st2" d="M910.9,185.8c-4.8,22.3-13.9,43.4-23.1,64.2c-9.6,21.8-16.8,44.2-24.6,66.7c-3.8,11,13.6,15.7,17.4,4.8
				c3.9-11.1,7.4-22.4,11.3-33.5c3.8-11,8.4-21.6,12.9-32.3c9.1-21.3,18.6-42.4,23.5-65.2C930.7,179.3,913.3,174.4,910.9,185.8
				L910.9,185.8z"/>
		</g>
	</g>
	<g>
		<g>
			<path class="st2" d="M889.2,375.5c7.8-8.6,15.7-18.6,20.6-29.2c1-2.1,1.8-4.3,3.3-6.2c1.8-2.3,3.8-4.3,5.4-6.8
				c3.2-5.2,5.4-11.1,8.5-16.5c5.8-10.3,12-20,18.7-29.7c3.3-4.8,5.8-10.1,8.9-15c1.4-2.2,3.1-4.4,4.5-6.7c0.5-0.9,0.9-1.8,1.4-2.7
				c0.2-0.4,0.4-0.8,0.6-1.1c1-1.4,0.9-1.4-0.3,0.1c-4.1-1.1-8.2-2.2-12.3-3.2c-0.4-2.1-0.6-2.2-0.5-0.4c0,0.7-0.1,1.3-0.1,2
				c-0.1,1.2-0.3,2.5-0.4,3.7c-0.2,3.2,0.1,6.5,0.3,9.8c0.3,8,0.5,16,0.8,24c0.3,7.7,1.7,15.2,2,22.9c0.4,7.4,1,14.9,3.6,21.9
				c2.4,6.7,9.6,8.4,15,4c4.8-4,7.5-11.6,10.5-16.9c4-7.1,7.5-14.6,11.9-21.4c2.1-3.3,3.4-6.3,4.9-9.9c1-2.4,2.6-4.2,4.1-6.3
				c4.1-5.6,7.1-12.3,4.9-19.4c-2.6-8.4-14.9-8.7-17.4,0c-0.6,2.1-0.4,5.2-1.5,7c-1.1,1.8-3.5,3.1-4.9,4.7c-3.6,4.2-5.1,9.4-7.9,14
				c-3.1,5-5.6,10.1-8.4,15.3c-2.6,4.9-5.6,9.2-7.6,14.3c-2,5.1-4.2,9.5-6.7,14.4c-2.7,5.2-4.7,10.7-7.1,16.1
				c-2.3,5-5.4,9.7-7.7,14.7c-2.3,5.1-4.2,10.2-7.2,15c-6.2,9.8,9.4,18.9,15.5,9.1c3-4.7,4.8-9.9,7.2-15c2.4-5.3,5.7-10.2,8.1-15.5
				c4.9-10.8,10.4-21.3,14.7-32.3c1.8-4.7,5-8.6,7.1-13.1c2.6-5.3,5.6-10.1,8.5-15.2c1.3-2.4,2.3-5,3.5-7.4c1.1-2.2,2.7-3.5,4.5-5.2
				c1.9-1.9,3.6-3.9,4.8-6.3c1.5-3.1,1.5-6.4,2.4-9.7c-5.8,0-11.6,0-17.4,0c0.6,2-4.4,7.1-5.8,9c-1.9,2.7-2.5,5.6-3.8,8.5
				c-1.1,2.5-3,4.7-4.4,7c-3.4,5.8-6.4,11.9-9.7,17.7c-1.7,2.9-3.4,5.8-5,8.7c-1,1.8-1.6,4-3.2,5.3c5,1.3,10,2.6,15,4
				c-2.4-6.6-2.7-13.3-3.1-20.3c-0.5-8.5-1.8-16.9-2.1-25.5c-0.3-8-0.6-16-0.9-24c-0.2-6.3,1.6-12.4-1.5-18.2
				c-2.3-4.4-8.2-5.5-12.3-3.2c-4.6,2.5-6.2,7-8.7,11.1c-3.3,5.3-6.7,10.3-9.8,15.7c-2.8,5-6.5,9.4-9.6,14.2
				c-3.4,5.2-6.5,10.6-9.5,16c-2.9,5.2-5.7,10.3-8.2,15.6c-1.3,2.6-2.4,5.2-4.3,7.4c-1.8,2.2-3.8,4.3-5.2,6.8
				c-2.7,4.8-4.9,9.7-7.9,14.4c-3.6,5.4-7.4,10.5-11.8,15.3C868.6,371.3,881.3,384.1,889.2,375.5L889.2,375.5z"/>
		</g>
	</g>
	<g>
		<g>
			<path class="st2" d="M1019.6,369.8c-12.1-5.9-30.3-17-43.4-8.5c-12,7.8-14.7,23.8-18.8,36.3c-2.5,7.5-4.4,15.2-7.3,22.6
				c-2.9,7.7-6.7,15-9.4,22.7c-5.1,14.4-14,29.5-6.6,44.6c3.6,7.3,10,12.9,17.1,16.6c4,2.1,8.1,4.3,12.4,5.4c4.2,1.1,8.6-0.1,12.7,1
				c11.2,2.9,16-14.5,4.8-17.4c-4-1-7.9-0.2-11.8-0.8c-3.4-0.5-6.7-2.6-9.7-4.2c-4.5-2.4-10.1-6.7-10.7-12.3
				c-0.3-3.3,1.7-7.1,2.5-10.2c1-3.9,2.5-7.3,4.1-11c3.4-8.2,6.6-16.4,10-24.6c3.2-7.7,5.5-15.6,8-23.6c2.2-7.1,3.9-14.9,7-21.7
				c1.6-3.3,3.5-8.4,7.1-8.5c3.4-0.1,8.1,2.4,11.2,3.7c4,1.6,7.9,3.6,11.8,5.5C1020.8,390.4,1030,374.9,1019.6,369.8L1019.6,369.8z"
				/>
		</g>
	</g>
	<g>
		<g>
			<path class="st2" d="M956.9,437.7c2.7,1.3,5.4,2.9,8.4,3.5c1.5,0.3,3,0.5,4.5,0.6c1.7,0.2-1.4-0.3-0.2,0c1,0.2-1.8-1.1,0.2,0.3
				c3.9,2.6,10.1,0.9,12.3-3.2c2.4-4.5,1-9.6-3.2-12.3c-2.9-1.9-5.8-2.4-9.1-2.7c-1.2-0.1-0.1-0.2,0.3,0c-0.5-0.2-1.1-0.3-1.7-0.5
				c1.2,0.4,0.2,0.1-0.5-0.2c-0.7-0.3-1.3-0.7-1.9-1c-4.2-2.1-9.9-1.3-12.3,3.2C951.5,429.5,952.4,435.4,956.9,437.7L956.9,437.7z"
				/>
		</g>
	</g>
	<g>
		<g>
			<path class="st2" d="M1007.9,462.5c-6.1,14.2-9.4,30-8.2,45.4c0.6,7.8,2.4,14.8,5.4,22c2.6,6.1,5.2,11.5,11.1,15
				c10,6,19-9.6,9.1-15.5c-2.5-1.5-3.8-6.2-4.8-8.9c-1.9-5.2-2.9-10.6-3-16.1c-0.3-11,1.5-22.6,5.9-32.8c1.9-4.5,1.3-9.6-3.2-12.3
				C1016.4,457.1,1009.8,458,1007.9,462.5L1007.9,462.5z"/>
		</g>
	</g>
	<g>
		<g>
			<path class="st2" d="M1046.1,482.8c-6.9,9.4-13.5,19.1-20.7,28.2c-6.8,8.6-11.2,18.5-17.6,27.4c-6.9,9.5-13.8,19-20.7,28.5
				c-3.4,4.7-5.8,9.5-8.6,14.6c-2.6,4.8-6.3,8.9-9.6,13.3c-2.9,3.9-0.6,10.1,3.2,12.3c4.6,2.7,9.4,0.7,12.3-3.2
				c3.1-4.1,6.6-8,9.2-12.5c2.8-5,5-10,8.4-14.6c7.1-9.7,14.2-19.5,21.3-29.3c6-8.3,10-17.6,16.4-25.7c7.6-9.7,14.7-19.9,22-29.9
				c2.9-3.9,0.7-10-3.2-12.3C1053.9,476.9,1049,478.8,1046.1,482.8L1046.1,482.8z"/>
		</g>
	</g>
	<g>
		<g>
			<path class="st3" d="M670.6,98.3c0-0.5,0-1.1,0.1-1.6c-0.4,1.5-0.8,3-1.2,4.5c2.5-5.9,5.4-12,10.8-15.9c0.2-0.1,2.6-1.4,2.5-1.3
				c-2.8,0.2-4.1-0.7-3.8-2.7c0,1,0,2,0,3c-0.1,3.5-1,6.8-2.5,10c-3.4,7.5-7.5,14.8-11.3,22.1c-2.1,3.9-4.2,7.9-6.1,11.9
				c-0.9,1.9-1.8,3.6-2.8,5.4c-0.3,0.5-2.9,5.8-1.8,3.4c1.1-1.1,2.2-2.2,3.2-3.2c-0.2,0.1-0.4,0.3-0.5,0.4c4.1,1.1,8.2,2.2,12.3,3.2
				c-6.9-14.6-17.5-27-22.7-42.5c-0.8-2.4-2.2-5.6-1.8-8.2c0.3-0.8,0.6-1.6,0.9-2.4c-3.4,1.4-3.7,1.9-1,1.6c0-0.1,1,1.4,1.2,1.6
				c4.1,4.7,6.7,10.9,11,15.2c-0.8-1.3-1.5-2.6-2.3-4c0.6,1.8,1.6,3.4,2.3,5.2c2,4.6,8.5,5.2,12.3,3.2c3.4-1.8,6.4-5.3,9-8
				c1.6-1.7,3.2-3.4,4.7-5.1c0.8-0.9,1.6-1.8,2.3-2.8c1.7-1.9,2-2.3,0.9-1.4c-4.1-4.1-8.2-8.2-12.3-12.3c-1.1,2.6-4.3,6.9-6,10
				c-2.8,5-5.7,9.8-8.3,14.8c-2.5,4.9-4.6,10-6.9,15c-1.8,3.9-4,7.9-2.3,12.3c1.7,4.2,5.1,7.2,9.9,6.4c4-0.6,8.3-4.3,7.8-8.8
				c-0.8-7.7-4-15.1-6.9-22.2c-3.1-7.5-6.4-14.9-9.7-22.2c-3.4,4.4-6.8,8.8-10.2,13.2c1.5,0.3,3.7,3.2,4.8,4.5
				c2,2.3,3.7,4.9,5.5,7.4c4.2,6.1,10.3,11.7,17.6,5.6c9.4-7.8,17.9-20.2,17.7-32.7c-0.4,1.5-0.8,3-1.2,4.5c0.1-0.2,0.2-0.3,0.3-0.5
				c6-9.9-9.5-19-15.5-9.1c-1.4,2.2-1.4,4.5-1.5,7c-0.1,2.8-0.8,3-2.5,5.9c-2.7,4.7-5.8,8.6-10,12c2.9-0.8,5.8-1.5,8.8-2.3
				c-0.2,0-0.5-0.1-0.7-0.1c1.3,0.8,2.6,1.5,4,2.3c1.4,1.3-1.1-1.6-1.3-1.8c-0.6-0.8-1.2-1.6-1.7-2.5c-1.9-2.7-3.8-5.4-6-7.9
				c-3.4-3.9-8.1-8.9-13.3-9.8c-8.1-1.4-13.5,5.8-10.2,13.2c2.7,6,5.4,11.9,7.9,17.9c1.2,2.8,2.3,5.7,3.3,8.5c0.9,2.6,2.7,6.1,3,8.9
				c5.9-0.8,11.8-1.6,17.7-2.4c-0.1-0.3-0.2-0.6-0.4-0.9c0,1.6,0,3.2,0,4.8c0.3-2.1,2.6-6.6,4-9.6c1.9-4,3.8-8,5.9-11.8
				c2.1-3.9,4.4-7.6,6.6-11.5c1.7-3,4.2-6.1,5.5-9.2c1.6-3.7,1.7-7.8-1.4-10.9c-2.7-2.7-7.7-3.7-10.9-1.4c-3.7,2.6-6.3,6.4-9.3,9.7
				c-2,2.2-6.2,6.9-7.6,7.7c4.1,1.1,8.2,2.2,12.3,3.2c-0.7-1.6-1.3-2.7-2.8-5.1c-1.1-1.8-2.2-3.6-3.4-5.3c-2.9-4.1-5.8-8.3-9.6-11.6
				c-4.9-4-10.9-6-17.2-4.5c-6.3,1.6-9.9,7.1-11.6,13c-3.4,11.6,3.7,23.8,8.3,34c4.9,11,12.7,20.3,17.8,31.2
				c1.9,4.1,8.6,5.9,12.3,3.2c4.6-3.3,6-7.4,8.4-12.4c3-6.4,6.4-12.6,9.8-18.8c6-11.1,12.9-23,12.6-36c-0.2-6-2.8-12.2-8.4-15.1
				c-5.7-3-13.1-0.7-18.1,2.7c-8.4,5.9-17.5,17.6-17.9,28.1C652.2,109.9,670.2,109.9,670.6,98.3L670.6,98.3z"/>
		</g>
	</g>
	<g>
		<g>
			<path class="st4" d="M665.4,55.1c0-7.9-0.1-15.7,0.5-23.5c0.5-5.8-8.5-5.7-9,0c-0.7,7.8-0.5,15.6-0.5,23.5
				C656.4,60.9,665.4,60.9,665.4,55.1L665.4,55.1z"/>
		</g>
	</g>
	<g>
		<g>
			<path class="st4" d="M685.6,59.8c4.4-2.2,8.1-6.9,11.8-10.2c3-2.6,6.8-6.7,10.4-8.4c5.2-2.5,0.6-10.3-4.5-7.8
				c-3.7,1.8-6.9,5.6-10.1,8.2c-3.9,3.1-7.5,8.1-12,10.4C675.8,54.6,680.4,62.4,685.6,59.8L685.6,59.8z"/>
		</g>
	</g>
	<g>
		<g>
			<path class="st4" d="M704.3,74.9c8.3,0.1,15.7-6.2,23.9-7.5c5.7-0.9,3.3-9.6-2.4-8.7c-3.8,0.6-7.5,2.3-11,3.7
				c-3.2,1.3-7,3.6-10.5,3.5C698.6,65.8,698.6,74.8,704.3,74.9L704.3,74.9z"/>
		</g>
	</g>
	<g>
		<g>
			<path class="st4" d="M613.1,44.6c3.1,3.3,7.3,5.3,10.6,8.4c3.3,3.1,7.1,5.4,10.9,7.9c4.8,3.2,9.4-4.6,4.5-7.8
				c-3.6-2.4-6.9-4.6-10.1-7.4c-3-2.7-6.8-4.6-9.5-7.4C615.4,34.1,609.1,40.4,613.1,44.6L613.1,44.6z"/>
		</g>
	</g>
	<g>
		<g>
			<path class="st4" d="M594.4,66.7c3.5,0.4,7.2,3.7,10.3,5.1c3.3,1.5,7.1,2.3,10.1,4.4c4.8,3.3,9.3-4.5,4.5-7.8
				c-3.8-2.6-8.6-3.5-12.5-5.7c-3.9-2.1-7.9-4.6-12.4-5C588.6,57.1,588.7,66.1,594.4,66.7L594.4,66.7z"/>
		</g>
	</g>
	<g>
		<g>
			<path class="st4" d="M590.8,99.3c4.2,0,8.4,0.2,12.6-0.9c4.3-1.1,8.6-1.2,13-2c5.7-1.1,3.3-9.8-2.4-8.7
				c-3.8,0.8-7.8,0.6-11.6,1.6c-3.9,1-7.6,0.9-11.6,0.9C585.1,90.3,585,99.3,590.8,99.3L590.8,99.3z"/>
		</g>
	</g>
	<g>
		<g>
			<path class="st4" d="M702.2,95.4c4.1,0,7.8,0.9,11.6,2.2c3.4,1.2,7.5,1.1,10.7,2.6c5.2,2.4,9.8-5.3,4.5-7.8
				c-4.1-1.9-8.6-2.1-12.9-3.5c-4.6-1.6-9.1-2.5-14-2.6C696.4,86.4,696.4,95.4,702.2,95.4L702.2,95.4z"/>
		</g>
	</g>
	<g>
		<g>
			<path class="st4" d="M693.5,116.8c5.2,4.9,12,7.8,17.5,12.3c4.4,3.7,10.8-2.7,6.4-6.4c-5.4-4.5-12.4-7.5-17.5-12.3
				C695.7,106.5,689.3,112.8,693.5,116.8L693.5,116.8z"/>
		</g>
	</g>
	<g>
		<g>
			<path class="st4" d="M598.6,128.6c4.5-0.8,7.8-4.9,12.2-6.2c4-1.1,7.2-2.1,10.7-4.4c4.9-3.1,0.4-10.9-4.5-7.8
				c-3.3,2.1-6.3,2.6-9.9,3.9c-1.7,0.6-3.4,1.4-5,2.3c-1.8,1-3.9,3.2-5.9,3.5C590.5,121,592.9,129.6,598.6,128.6L598.6,128.6z"/>
		</g>
	</g>
	<g>
		<g>
			<path class="st5" d="M555.5,456.8c0.1-0.5,0.1-1,0.2-1.4c-0.7,5.3-1.4,10.6-2.1,16c0.2-0.9,0.4-1.7,0.8-2.5c-2,4.8-4,9.6-6,14.3
				c0.6-1.2,1.2-2.1,2-3.2c-3.1,4-6.3,8.1-9.4,12.1c4.7-5.7,9.9-11,13.7-17.4c1.3-2.2,2.3-4.5,3.7-6.6c-3.1,4-6.3,8.1-9.4,12.1
				c1.3-1.5,2.8-2.6,4.3-3.9c-4,3.1-8.1,6.3-12.1,9.4c2.2-1.7,4.5-3,7-4.1c-4.8,2-9.6,4-14.3,6c5.2-2.1,10.6-3.5,16.1-4.4
				c5.7-0.9,11.2-2.4,16.8-3.2c-5.3,0.7-10.6,1.4-16,2.1c11.3-1.5,21.9-2.5,32.7-5.8c6.4-2,12.9-3.6,19.6-4.5
				c-5.3,0.7-10.6,1.4-16,2.1c3.7-0.4,7.3-0.5,11-0.1c-5.3-0.7-10.6-1.4-16-2.1c4.7,0.8,9.2,2.3,13.6,4.1c-4.8-2-9.6-4-14.3-6
				c9.2,4,17.9,9.1,25.9,15.2c-4-3.1-8.1-6.3-12.1-9.4c8.2,6.5,15.8,14.1,22.4,22.2c-3.1-4-6.3-8.1-9.4-12.1
				c4.3,5.7,7.2,12.8,10.1,19.3c-2-4.8-4-9.6-6-14.3c1.1,2.8,2,5.5,2.5,8.5c-0.7-5.3-1.4-10.6-2.1-16c0.2,2.1,0.2,4,0,6.1
				c0.7-5.3,1.4-10.6,2.1-16c-0.5,2.9-1.5,5.5-2.6,8.2c2-4.8,4-9.6,6-14.3c-3.1,7.1-7,13.8-10.8,20.6c-3.3,6-5.8,12.7-10,18.2
				c3.1-4,6.3-8.1,9.4-12.1c-1.4,1.6-2.8,3.1-4.4,4.4c4-3.1,8.1-6.3,12.1-9.4c-2,1.5-4,2.7-6.3,3.8c4.8-2,9.6-4,14.3-6
				c-6,2.5-12.5,3.5-18.9,4.3c5.3-0.7,10.6-1.4,16-2.1c-12.9,1.6-26,2.1-39,2.2c-12.7,0.1-25.4,0.1-38-1.5c5.3,0.7,10.6,1.4,16,2.1
				c-4.6-0.8-8.9-2.1-13.2-3.9c4.8,2,9.6,4,14.3,6c-6-2.6-11.5-5.6-16.8-9.5c4,3.1,8.1,6.3,12.1,9.4c-5.9-4.6-11-9.9-15.6-15.8
				c3.1,4,6.3,8.1,9.4,12.1c-4.8-6.2-8.8-12.8-11.9-20c2,4.8,4,9.6,6,14.3c-3.4-8.4-5.5-17.2-6.8-26.1c0.7,5.3,1.4,10.6,2.1,16
				c-1.4-10.3-2.9-20.8-2-31.2c-0.7,5.3-1.4,10.6-2.1,16c0.2-1.4,0.6-2.6,1.1-3.9c-2,4.8-4,9.6-6,14.3c0.7-1.3,1.3-2.4,2.2-3.5
				c-3.1,4-6.3,8.1-9.4,12.1c1.5-1.8,3.2-3.4,5.1-4.8c-4,3.1-8.1,6.3-12.1,9.4c5.3-3.8,11.4-6.7,17.1-9.9c6.1-3.3,12.1-6.8,18.5-9.5
				c-4.8,2-9.6,4-14.3,6c14.2-5.8,29.9-8.4,45.1-10.5c-5.3,0.7-10.6,1.4-16,2.1c6.6-0.8,13.1-1.2,19.7-0.4c-5.3-0.7-10.6-1.4-16-2.1
				c4.1,0.6,8,1.6,11.9,3.1c-4.8-2-9.6-4-14.3-6c7.3,3.1,13.9,7.4,21,10.9c7,3.4,13.9,7,20.4,11.4c13.2,8.9,26.9,17.3,39.7,26.8
				c-4-3.1-8.1-6.3-12.1-9.4c2.3,1.9,4.3,4,6.2,6.3c-3.1-4-6.3-8.1-9.4-12.1c2.4,3.2,4.2,6.6,5.8,10.2c-2-4.8-4-9.6-6-14.3
				c2.6,6.3,4.2,12.8,5.8,19.4c1.2,5,3,9.9,3.8,15c-0.7-5.3-1.4-10.6-2.1-16c0.2,1.8,0.3,3.6,0.2,5.4c0.7-5.3,1.4-10.6,2.1-16
				c-0.2,1-0.4,1.9-0.7,2.9c2-4.8,4-9.6,6-14.3c-0.4,1-0.8,1.7-1.4,2.6c3.1-4,6.3-8.1,9.4-12.1c-0.4,0.6-0.9,1.1-1.5,1.5
				c4-3.1,8.1-6.3,12.1-9.4c-1,0.7-1.9,1.3-3.1,1.8c4.8-2,9.6-4,14.3-6c-2,0.8-4,1.3-6.2,1.6c5.3-0.7,10.6-1.4,16-2.1
				c-1.7,0.2-3.3,0.2-5-0.1c5.3,0.7,10.6,1.4,16,2.1c-0.8-0.1-1.6-0.3-2.3-0.6c4.8,2,9.6,4,14.3,6c-0.8-0.3-1.5-0.7-2.1-1.1
				c4,3.1,8.1,6.3,12.1,9.4c-1.1-0.8-1.8-1.6-2.7-2.7c3.1,4,6.3,8.1,9.4,12.1c-4.7-7.9-9.9-15.8-16.8-22
				c-11.5-10.4-22.2-16.2-36.7-21.5c-11.8-4.3-24.8-4.9-37.2-3.3c-5.4,0.7-9.8,1.1-14.7,2.9c-2.9,1-5.6,2-8.6,2.5
				c5.3-0.7,10.6-1.4,16-2.1c-1.1,0.1-2.2,0.2-3.3,0c-15-0.6-32,7.1-42.4,17.6c-10.4,10.4-18.2,27.5-17.6,42.4
				c0.7,15.5,5.8,31.6,17.6,42.4c12,11,26,16.9,42.4,17.6c6.3,0.3,13.1-1,19.2-2.2c1.9-0.4,3.7-0.8,5.5-1.4c3.3-1.1,6.4-2.5,9.8-3
				c-5.3,0.7-10.6,1.4-16,2.1c1.6-0.1,3.1-0.1,4.7,0.1c-5.3-0.7-10.6-1.4-16-2.1c3.2,0.4,6.3,1.2,9.3,2.4c-4.8-2-9.6-4-14.3-6
				c3,1.3,5.9,3,8.5,4.9c-4-3.1-8.1-6.3-12.1-9.4c1.7,1.4,3.2,2.9,4.6,4.7c-3.1-4-6.3-8.1-9.4-12.1c4.4,6.1,8.1,12.4,13.1,18.2
				c6.6,7.6,15,12.4,24.1,16.2c9.2,3.9,18.3,6,28.6,6c5.9,0,12.7-1.2,18.5-2.4c1.7-0.3,3.3-0.8,4.9-1.3c11.7-4,21.7-9.2,30.6-17.9
				c8.2-8,14.8-19.2,18-30.2c4.1-14.6,3.1-28.4,0-43c-3.4-15.8-8.5-31.1-15.1-45.9c-9.5-21.3-28-34.6-46.7-47.3
				c-5.9-4-12.3-7.4-18.1-11.5c-6.2-4.3-12.1-8.7-18.8-12.4c-6.3-3.5-12.8-6.4-19-9.9c-10.1-5.7-20.9-11.2-32.1-14.1
				c-24.9-6.4-49.1-2.7-73.8,2.1c-7.2,1.4-14.5,2.5-21.5,4.9c-11.3,3.7-22.5,8.6-32.9,14.3c-20.3,11.2-41.2,22-53,43.1
				c-14.6,26.3-9.6,56.4-5.1,84.6c1.1,7.2,2.9,14.4,5.5,21.3c4.1,10.8,8.5,21.8,15.1,31.4c13,18.8,27.7,35.1,47.5,47
				c3,1.8,6.2,3.3,9.5,4.7c7.6,3.3,15.2,7.1,23.3,9.2c11.8,3.1,24.7,3.9,36.9,4.5c16.4,0.8,33.1,0.5,49.5-0.8
				c12.5-1,25.1-2.4,37.4-4.9c2.9-0.6,5.8-1.4,8.5-2.5c7.3-2.8,14.9-5.5,21.3-10.1c12.9-9.4,24-20.1,31.1-34.7
				c3.3-6.7,7-13.1,10.5-19.7c1.7-3.1,3.3-6.3,4.8-9.6c3.3-7.4,7.4-15.2,9-23.4c2.7-14.1,2.5-23.8,0-38c-1-5.6-3.4-10.4-5.6-15.6
				c-3.3-7.8-6.6-16.8-11.3-24c-6.3-9.6-14.1-18.4-22.2-26.6c-8.2-8.3-17.5-15.5-27-22.2c-6-4.3-12.5-8.1-19.2-11.2
				c-7.4-3.4-14.9-6.8-22.6-9.4c-8.2-2.8-17-3.7-25.5-4.4c-8.7-0.7-17.5,1.1-26,2.3c-3.9,0.6-7.8,1.3-11.7,2.3
				c-7.2,1.8-14,4.5-21.3,5.5c5.3-0.7,10.6-1.4,16-2.1c-7.6,1-15.2,1.6-22.7,3.1c-2.9,0.6-5.8,1.5-8.8,2c-6.3,1-12.3,1.9-18.4,4.1
				c-15.8,5.8-25.1,11.2-37.8,22c-0.9,0.7-1.7,1.5-2.4,2.3c-3.4,3.6-7.8,9.1-10.3,13.4c-1.1,1.9-1.9,4-3.2,5.8
				c3.1-4,6.3-8.1,9.4-12.1c-4.7,6-10.1,11.3-14.1,17.9c-7.5,12.4-8.8,22.3-10.4,36.4c-0.3,8.3,1.4,16,5.2,23.1
				c2.4,7.4,6.6,13.9,12.4,19.3c10.4,10.4,27.5,18.2,42.4,17.6c15.5-0.7,31.6-5.8,42.4-17.6c3.1-4,6.3-8.1,9.4-12.1
				C552.8,477.7,555.5,467.6,555.5,456.8L555.5,456.8z"/>
		</g>
	</g>
	<g>
		<g>
			<path class="st6" d="M779.9,516.6c0.1,1.2,0.1,2.3,0,3.5c0.7-5.3,1.4-10.6,2.1-16c-0.3,1.6-0.7,3.2-1.3,4.7c2-4.8,4-9.6,6-14.3
				c-1.3,2.9-2.9,5.5-4.8,8c3.1-4,6.3-8.1,9.4-12.1c-2.7,3.3-5.7,6.2-9,8.8c4-3.1,8.1-6.3,12.1-9.4c-3,2.3-6.2,4.3-9.7,5.8
				c4.8-2,9.6-4,14.3-6c-3.9,1.4-7.9,2.3-12,2.9c5.3-0.7,10.6-1.4,16-2.1c-6.4,0.8-12.8,1.2-19.3,0.5c5.3,0.7,10.6,1.4,16,2.1
				c-6.9-1-13.2-3.7-19.7-5.8c-5.7-1.9-11.6-3.2-17.2-5.4c4.8,2,9.6,4,14.3,6c-2.8-1.2-5.4-2.5-7.9-4.3c4,3.1,8.1,6.3,12.1,9.4
				c-8.9-7.1-18.1-13.9-27.1-20.9c4,3.1,8.1,6.3,12.1,9.4c-9.1-7.3-15.9-16.6-23.5-25.3c3.1,4,6.3,8.1,9.4,12.1
				c-3.2-4.2-5.4-9.2-7.5-14.1c2,4.8,4,9.6,6,14.3c-2.1-5.2-3.9-10.5-4.9-16c0.7,5.3,1.4,10.6,2.1,16c-0.5-4.1-0.7-8.4-0.5-12.5
				c-0.7,5.3-1.4,10.6-2.1,16c0.1-1.1,0.3-2.1,0.7-3.1c-2,4.8-4,9.6-6,14.3c2.4-5.4,6.4-10.7,9.9-15.4c-3.1,4-6.3,8.1-9.4,12.1
				c2.6-3.3,5.5-6.2,8.8-8.8c-4,3.1-8.1,6.3-12.1,9.4c5.6-4,11.8-7.2,18.1-10c-4.8,2-9.6,4-14.3,6c5.1-2.1,10.4-3.7,15.9-4.5
				c-5.3,0.7-10.6,1.4-16,2.1c3.2-0.4,6.4-0.4,9.6-0.1c-5.3-0.7-10.6-1.4-16-2.1c3.2,0.5,6.2,1.4,9.3,2.6c-4.8-2-9.6-4-14.3-6
				c3.2,1.5,6.1,3.2,8.9,5.3c-4-3.1-8.1-6.3-12.1-9.4c6.5,5.3,11.7,11.8,17.5,17.9c6.7,7,14.6,13.3,20.6,20.9
				c-3.1-4-6.3-8.1-9.4-12.1c2.7,3.7,4.7,7.7,6.7,11.9c3.8,8.2,8.2,15.1,14.5,21.9c4.3,4.6,9.8,8.4,14.9,12c1.4,1,2.8,1.9,4.3,2.7
				c3.4,1.9,6.9,3.5,10.1,5.8c-4-3.1-8.1-6.3-12.1-9.4c0.6,0.5,1.2,1,1.7,1.5c-3.1-4-6.3-8.1-9.4-12.1c0.7,1,1.2,1.8,1.7,2.9
				c-2-4.8-4-9.6-6-14.3c0.4,1.2,0.7,2.4,1,3.6c-0.7-5.3-1.4-10.6-2.1-16c0.3,2.2,0.3,4.2,0.1,6.4c0.7-5.3,1.4-10.6,2.1-16
				c-0.2,1.2-0.5,2.2-0.8,3.3c2-4.8,4-9.6,6-14.3c-0.5,1.1-1,1.9-1.8,2.9c3.1-4,6.3-8.1,9.4-12.1c-0.5,0.6-1.1,1.1-1.7,1.6
				c4-3.1,8.1-6.3,12.1-9.4c-1.3,0.9-2.7,1.7-4.2,2.3c4.8-2,9.6-4,14.3-6c-5.1,1.9-10.5,2.5-15.5,4.4c-7.8,1.9-14.6,5.4-20.4,10.7
				c-6.5,4.2-11.7,9.8-15.5,16.8c-7.5,12.9-10.7,31.8-6,46.2c4.7,14.5,13.7,28.5,27.6,35.9c13.5,7.1,31.4,11.8,46.2,6
				c3.1-1.2,6.3-1.8,9.5-2.6c7.5-1.8,14.8-4.9,21.5-8.4c10.7-5.6,20.9-15.4,27-25.9c7-12.1,8.9-21.8,10.1-35.6
				c0.1-1.7,0.2-3.4,0.1-5.1c-0.4-5.7-1.1-13-2.5-18.5c-3.2-12.2-9.7-23.6-18.6-32.5c-5.2-5.1-12-10-18.7-13.6
				c-3-1.6-6.1-3.1-8.8-5.1c4,3.1,8.1,6.3,12.1,9.4c-1.3-1.1-2.5-2.2-3.5-3.6c3.1,4,6.3,8.1,9.4,12.1c-2.4-3.6-3.8-7.8-5.7-11.7
				c-4.1-8.4-10.1-15.9-16.2-23c-6.8-7.9-15.1-14.7-22.2-22.4c-9-9.7-17.7-18-28.8-25.6c-7.4-5-16.1-8.4-24.6-11.1
				c-4.3-1.3-9-1.7-13.5-2.3c-5.1-0.7-10.1-1.6-15.2-1.2c-20.1,1.4-36.6,6.6-54.6,15.7c-3.7,1.9-7.4,3.9-10.9,6.3
				c-7.5,5-15.4,10.9-21.3,17.9c-5.8,6.9-10.9,14.2-15.9,21.7c-1.1,1.7-2.4,3.3-3.4,5.1c-4.9,9-7.5,17.5-8.8,27.5
				c-2.4,17.7-0.2,35.8,6.4,52.4c3.7,9.2,7.4,19.5,13.1,27.8c5.5,7.9,12.2,15.5,18.4,23c10.6,12.7,23.8,21.9,36.9,31.8
				c-4-3.1-8.1-6.3-12.1-9.4c6.2,4.8,12,10.2,18.6,14.4c6.2,4,14.8,7.1,21.1,9.5c5.9,2.3,12,3.7,18,5.7c16.8,5.6,34.1,9.5,51.8,7.4
				c7.6-0.9,15.3-1.7,22.8-3.2c7.6-1.6,14.7-5,21.7-8.2c8.9-4,16.7-10.6,24-16.9c7.7-6.6,14.4-15,19.3-23.7c0.7-1.1,1.2-2.3,1.7-3.5
				c2.3-5.1,5.2-10.7,6.7-16.1c1-3.6,1.2-7.2,1.7-10.9c0.5-3.9,1.4-7.6,1.1-11.5c-1.1-16-5.9-30.8-17.6-42.4
				c-10.4-10.4-27.5-18.2-42.4-17.6c-15.5,0.7-31.6,5.8-42.4,17.6C787.2,485.4,778.9,500.8,779.9,516.6L779.9,516.6z"/>
		</g>
	</g>
	<g>
		<g>
			<path class="st7" d="M732.5,315.1c1.6-18.5-8.5-34-20.3-46.8c3.1,4,6.3,8.1,9.4,12.1c-3.6-6.1-7.4-12.2-12.7-17.2
				c-8.2-7.8-16.8-12-27.3-15.9c-1.5-0.5-2.9-1-4.4-1.3c-10.1-2.1-20.9-3.3-31.4-3.5c-10.2-0.2-20.5,0-30.6,1.3
				c-10.2,1.4-20,3.8-28.8,9.7c-6.3,4.2-12.7,9-17.7,14.7c-9.1,10.5-14.2,19-19,32c-0.6,1.7-1.1,3.3-1.4,5.1
				c-1.2,6.3-2.4,13.2-2.4,19.6c-0.1,7.8,1.5,15.8,2.8,23.4c1,5.5,2.6,9.5,4.9,14.8c3.8,9,8.1,16.2,15.3,23.4
				c3.7,3.8,9.4,7.8,13.8,10.7c1.2,0.8,2.4,1.5,3.7,2.1c10.3,5,21.3,9.7,32.7,11.6c19.9,3.3,40.2,5,60.4,4.9
				c12.6,0,24.9-1.7,37.4-3.6c2.9-0.4,5.9-1,8.7-1.9c7.4-2.5,15.4-5.5,22-9.9c13.1-8.8,25.3-20.2,33.8-33.5c3.2-5,5.7-11.3,7.5-16.9
				c1.8-5.7,2.8-12.7,2.9-18.6c0.1-3.3-0.5-5.3-1.1-9.3c-0.1-1-0.6-6.6-1.3-9.3c-3.1-10.6-9.2-21.2-16.9-28.9
				c-8.5-8.5-18.3-14.6-28.7-20.3c-15.9-8.8-30-12.5-48.1-13.5c-8.5-0.5-17.1-1.8-25.6-0.9c-18.3,2-32.6,5-49.2,13.4
				c-7,3.6-13.4,9.1-19.1,14.3c-5.9,5.4-11.3,12.2-15.3,19.1c-9.2,16.1-10.7,35-6.6,52.9c2,8.5,6.2,16.9,10.4,24.6
				c7.1,13,21.7,23.7,35.9,27.6c14.4,4,33.5,2.2,46.2-6c12.8-8.3,24.1-20.6,27.6-35.9c3.6-16,1.9-31.6-6-46.2
				c-1.1-2-2.2-4.1-3.1-6.2c2,4.8,4,9.6,6,14.3c-0.6-1.6-1-3.1-1.4-4.8c0.7,5.3,1.4,10.6,2.1,16c-0.2-1.1-0.2-2.2-0.1-3.3
				c-0.7,5.3-1.4,10.6-2.1,16c0.1-0.9,0.3-1.7,0.7-2.5c-2,4.8-4,9.6-6,14.3c0.4-0.9,0.9-1.7,1.6-2.4c-3.1,4-6.3,8.1-9.4,12.1
				c2-2.3,4.2-4.4,6.5-6.4c-4,3.1-8.1,6.3-12.1,9.4c2.3-1.8,4.8-3.1,7.5-4.2c-4.8,2-9.6,4-14.3,6c5-1.9,10.1-3.1,15.4-3.9
				c-5.3,0.7-10.6,1.4-16,2.1c9.9-1.3,20.7,0.1,30.6,1.2c-5.3-0.7-10.6-1.4-16-2.1c2.9,0.4,5.6,1.1,8.3,2.2c-4.8-2-9.6-4-14.3-6
				c6.2,2.9,12.7,6.2,18.1,10.4c-4-3.1-8.1-6.3-12.1-9.4c1.3,1.1,2.5,2.1,3.7,3.3c-3.1-4-6.3-8.1-9.4-12.1c0.7,0.7,1.2,1.5,1.5,2.4
				c-2-4.8-4-9.6-6-14.3c0.1,0.4,0.2,0.9,0.3,1.3c-0.7-5.3-1.4-10.6-2.1-16c0,0.4,0,0.9,0,1.3c0.7-5.3,1.4-10.6,2.1-16
				c-0.1,0.9-0.4,1.8-0.7,2.7c2-4.8,4-9.6,6-14.3c-0.7,1.4-1.5,2.6-2.4,3.8c3.1-4,6.3-8.1,9.4-12.1c-3.1,3.5-6.5,6.8-10.1,9.8
				c4-3.1,8.1-6.3,12.1-9.4c-2.2,1.7-4.4,3-6.9,4.1c4.8-2,9.6-4,14.3-6c-3.7,1.5-7.6,2.2-11.5,2.8c5.3-0.7,10.6-1.4,16-2.1
				c-20.1,2.7-41.4,1.6-61.5-0.9c5.3,0.7,10.6,1.4,16,2.1c-6.9-1-13.5-2.5-20-5.2c4.8,2,9.6,4,14.3,6c-2.3-1-4.4-2.1-6.4-3.6
				c4,3.1,8.1,6.3,12.1,9.4c-0.8-0.7-1.5-1.4-2.1-2.2c3.1,4,6.3,8.1,9.4,12.1c-0.6-0.9-1.1-1.7-1.5-2.6c2,4.8,4,9.6,6,14.3
				c-1.1-2.9-1.6-6-2.1-9.1c0.7,5.3,1.4,10.6,2.1,16c-0.4-3-0.6-5.9-0.3-8.9c-0.7,5.3-1.4,10.6-2.1,16c0.3-2,0.8-3.9,1.5-5.8
				c-2,4.8-4,9.6-6,14.3c0.7-1.5,1.5-2.8,2.4-4.2c-3.1,4-6.3,8.1-9.4,12.1c1.9-2.3,3.8-4.4,6.1-6.3c-4,3.1-8.1,6.3-12.1,9.4
				c1.2-0.9,2.4-1.6,3.8-2.3c-4.8,2-9.6,4-14.3,6c1.1-0.4,2.2-0.7,3.3-0.8c-5.3,0.7-10.6,1.4-16,2.1c11.5-0.9,23.9-0.8,35.4,0.7
				c-5.3-0.7-10.6-1.4-16-2.1c2.4,0.4,4.8,0.8,7.1,1.8c-4.8-2-9.6-4-14.3-6c0.3,0.1,0.5,0.3,0.8,0.4c-4-3.1-8.1-6.3-12.1-9.4
				c0.3,0.3,0.7,0.6,1,0.9c-3.1-4-6.3-8.1-9.4-12.1c0.9,1.3,1.5,2.8,2.2,4.2c3.9,7.3,7.3,9.7,11.8,14.6c-3.1-4-6.3-8.1-9.4-12.1
				c0.1,0.3,0.3,0.6,0.4,0.9c-2.7-10.1-5.5-20.2-8.2-30.3c0,0.3-0.1,0.7-0.1,1c-1.2,14.5,7.6,32.4,17.6,42.4
				c10.4,10.4,27.5,18.2,42.4,17.6c15.5-0.7,31.6-5.8,42.4-17.6c3.1-4,6.3-8.1,9.4-12.1C729.8,336,732.5,325.9,732.5,315.1
				L732.5,315.1z"/>
		</g>
	</g>
	<g>
		<g>
			<path class="st5" d="M546.8,566.8c15.4,0,31.5-6.7,42.4-17.6c10.4-10.4,18.2-27.5,17.6-42.4c-0.7-15.5-5.8-31.6-17.6-42.4
				c-11.7-10.8-26.2-17.6-42.4-17.6c-15.4,0-31.5,6.7-42.4,17.6c-10.4,10.4-18.2,27.5-17.6,42.4c0.7,15.5,5.8,31.6,17.6,42.4
				C516.1,560,530.6,566.8,546.8,566.8L546.8,566.8z"/>
		</g>
	</g>
</g>
<g id="Layer_3">
	<g>
		<g>
			<path class="st8" d="M607,360c0-7.6,0.1-15.2,0-22.8c0-3.1-0.2-6.3,0-9.5c0.1-1.6,1.2-9.7,2.6-11c1.7-1.5,2.8,4.3,3.4,5.8
				c1.4,3.4,2.8,6.7,3.9,10.2c2.2,6.8,4.8,13.7,6.4,20.7c0.5,1.9,3.3,1.1,2.9-0.8c-2.2-9.2-5.4-18.8-9-27.5
				c-1.3-3.3-2.2-7.9-4.1-10.8c-1-1.5-2.4-2.5-4.2-1.7c-1.7,0.8-2.4,3.2-2.8,4.8c-1.2,4-2.2,7.9-2.3,12.1
				c-0.1,10.2,0.1,20.4,0.1,30.5C604,361.9,607,361.9,607,360L607,360z"/>
		</g>
	</g>
	<g>
		<g>
			<path class="st8" d="M605.8,337.5c2.4,0,4.3-0.8,6.3-2.1c2.1-1.4,4.5-2.5,6.4-4.1c1.5-1.2-0.7-3.4-2.1-2.1
				c-1.6,1.3-3.5,2.1-5.2,3.3c-1.8,1.1-3.2,2.1-5.4,2.1C603.9,334.5,603.9,337.5,605.8,337.5L605.8,337.5z"/>
		</g>
	</g>
	<g>
		<g>
			<path class="st8" d="M657.5,284.5c-3.6-0.1-6.9-0.5-8.4,3.4c-1.3,3.6-1.4,8.1-0.9,11.7c1.2,8.3,1.7,23.1,13.3,23.9
				c8.8,0.6,6.6-13.7,5.7-18.8c-0.9-5-2-10.2-3.9-15.1c-1.2-2.9-2.4-6-5.8-6.1c-1.9-0.1-1.9,2.9,0,3c3.8,0.2,6,14,6.6,16.9
				c0.4,2.5,1,4.9,1.1,7.5c0,1.9,0,3.5-0.4,5.3c-0.6,2.4-0.4,2.9-3,3.3c-8.9,1.4-9.5-13.4-10.2-19.3c-0.3-2.8-0.6-4.8-0.1-7.7
				c0.1-0.9,0.2-2.1,0.5-3c1.1-2.5,3.1-2.1,5.6-2.1C659.5,287.6,659.5,284.6,657.5,284.5L657.5,284.5z"/>
		</g>
	</g>
	<g>
		<g>
			<path class="st8" d="M675.1,298.1c0,4.6,0.2,9.1,0.7,13.7c0.5,5.1,0,10.2,0.6,15.3c0.6,5.4,3.7,11.6,10.2,10.7
				c7.6-1.1,6.9-11.9,6.7-17.4c-0.2-4.3-0.2-8.4-0.7-12.6c-0.3-2.8,0.3-7-1.3-9.4c-1.1-1.6-3.7-0.1-2.6,1.5c0.9,1.3,0.8,6.2,0.9,7.9
				c0.2,2.4,0.5,4.7,0.6,7.2c0.1,4.6,2.3,21.1-5.5,19.8c-7.2-1.1-5.5-12.1-5.4-17.2c0.1-6.5-1.2-12.9-1.2-19.4
				C678.1,296.2,675.1,296.2,675.1,298.1L675.1,298.1z"/>
		</g>
	</g>
	<g>
		<g>
			<path class="st8" d="M709.6,318.9c-0.3,3.6-1.7,7-2.4,10.5c-0.6,2.6-0.9,5.3-1.5,7.9c-1.8,6.9-4.5,13.6-6.2,20.6
				c-0.5,1.9,2.4,2.7,2.9,0.8c1.9-7.6,4.7-14.9,6.7-22.4c0.7-2.8,1-5.5,1.7-8.3c0.8-3,1.6-6.1,1.9-9.1
				C712.8,316.9,709.8,316.9,709.6,318.9L709.6,318.9z"/>
		</g>
	</g>
	<g>
		<g>
			<path class="st8" d="M703.9,317.9c2.7-0.1,5.8,1.3,8.4,2c2.5,0.7,4.9,1.6,7.4,2.3c1.9,0.5,2.7-2.4,0.8-2.9
				c-1.2-0.4-2.1-1.1-3.3-1.4c-1.7-0.4-3.3-0.8-5-1.2c-2.6-0.7-5.4-2-8.2-1.9C702,315,701.9,318,703.9,317.9L703.9,317.9z"/>
		</g>
	</g>
	<g>
		<g>
			<path class="st8" d="M492,504.6c-0.9-6.3-5.5-10.6-11.8-11.2c-5.9-0.5-7.3,4.4-4.3,9c2.2,3.4,5.2,6.4,8.2,9.2
				c3.8,3.7,6,8.3,8.6,12.8c2.5,4.3,7.1,16.1-1.4,17c-3.8,0.4-4.9-4.1-5.6-6.9c-0.5-2-0.7-4.1-1.4-6c-0.7-1.8-3.6-1-2.9,0.8
				c1.8,4.7,1.5,14.7,8.4,15.2c6.6,0.5,9.8-5.3,9.2-11c-0.5-4.7-2.3-8.1-4.6-12.2c-2.1-3.8-4.1-7.6-7.1-10.7
				c-2.3-2.5-10.8-8.8-9.9-12.5c0.7-3.2,5.9-1.1,7.4-0.2c2.7,1.6,4,4.5,4.4,7.5C489.3,507.3,492.2,506.5,492,504.6L492,504.6z"/>
		</g>
	</g>
	<g>
		<g>
			<path class="st8" d="M490.8,479.8c0.6,6.2,3.6,12,5.6,17.8c1.7,5.1,3.4,9.9,5.4,14.9c0.7,1.8,3.6,1,2.9-0.8
				c-1.8-4.4-3.4-8.8-4.9-13.4c-2-6-5.3-12.2-6-18.5C493.6,477.9,490.6,477.9,490.8,479.8L490.8,479.8z"/>
		</g>
	</g>
	<g>
		<g>
			<path class="st8" d="M485.7,481.3c2.7,0,5.1-0.6,7.7-1.2c2.9-0.7,6.2-2,9.3-2.2c1.9-0.1,1.9-3.1,0-3c-5.8,0.4-11.1,3.6-17,3.5
				C483.7,478.2,483.7,481.2,485.7,481.3L485.7,481.3z"/>
		</g>
	</g>
	<g>
		<g>
			<path class="st8" d="M503.5,485.4c0.9,3.7,2.7,7.2,3.9,10.9c1.2,3.8,1.9,7.6,3.5,11.3c2.4,5.6,5.9,12.6,13,12.6
				c6.3,0,6.5-8.4,5.1-13c-1.3-4.1-3.4-8.1-5.1-12.1c-1-2.5-2.4-4.9-3.2-7.5c-0.6-2-0.6-3.8-1.5-5.7c-0.8-1.7-3.4-0.2-2.6,1.5
				c1.2,2.5,1.4,5.8,2.6,8.4c1.3,3,2.7,6.1,3.9,9.2c1.4,3.4,3.2,6.6,3.4,10.3c0.3,5.1-2.7,7.8-7.3,4.1c-4.2-3.4-6.5-10.5-7.7-15.5
				c-1.3-5.3-3.8-10.1-5.2-15.3C505.9,482.7,503.1,483.5,503.5,485.4L503.5,485.4z"/>
		</g>
	</g>
	<g>
		<g>
			<path class="st8" d="M517,459.5c2.4,9.6,7.9,18.2,11.3,27.5c1,2.6,0.8,6.5,4.4,6.1c3.6-0.4,6-4.4,7.2-7.3
				c3.2-7.7,0.3-19.5-5.3-25.5c-4.5-4.8-13.4-10.3-17.8-2.5c-0.9,1.7,1.6,3.2,2.6,1.5c4.6-8.2,14.6,4.5,16.3,9
				c1.2,3,2.4,6.4,2.5,9.7c0.1,2.7-1.4,12.3-5.4,11.8c-1.2-0.2-2.1-4.7-2.8-6.3c-1.2-2.7-2.4-5.5-3.7-8.2
				c-2.5-5.3-5.1-10.9-6.6-16.6C519.4,456.9,516.5,457.7,517,459.5L517,459.5z"/>
		</g>
	</g>
	<g>
		<g>
			<path class="st8" d="M547.7,472c0.7,5.5,4.3,11.3,6.1,16.6c1.7,4.9,4.1,9.7,5.7,14.6c0.3-0.6,0.7-1.2,1-1.8
				c-2.2,0.3-3.5,1.6-5.6,2.1c0.3,1,0.5,1.9,0.8,2.9c3.3-1.2,6.9-2.3,9.7-4.4c1.5-1.2,0-3.8-1.5-2.6c-2.6,2-6,3-9,4.1
				c-1.8,0.7-1.1,3.3,0.8,2.9c2-0.4,3.6-1.8,5.6-2.1c0.8-0.1,1.3-1.1,1-1.8c-1.6-4.7-3.9-9.1-5.5-13.8c-0.9-2.6-1.7-5.2-2.8-7.7
				c-1.1-2.6-3.2-6-3.5-8.9C550.5,470.1,547.5,470.1,547.7,472L547.7,472z"/>
		</g>
	</g>
	<g>
		<g>
			<path class="st8" d="M544.1,473.8c2.8,0.1,5.3-2.3,8.1-2.3c1.9,0,1.9-3,0-3c-1.5,0-2.5,0.5-3.9,1c-0.7,0.3-1.5,0.4-2.2,0.7
				c-0.7,0.3-1.3,0.6-2,0.6C542.1,470.7,542.1,473.7,544.1,473.8L544.1,473.8z"/>
		</g>
	</g>
	<g>
		<g>
			<path class="st8" d="M557.1,436.7c-10.5,0.4-6.9,12.8-4.2,19.1c3.2,7.6,8.1,19.7,18.1,18.8c3.4-0.3,6.7-2.6,7.4-6
				c1.2-5.1-2.9-10.2-4.7-14.6c-1.9-4.7-3.6-9.8-6.5-13.9c-2.2-3.1-7.1-4-10.7-3.9c-1.9,0.1-1.9,3.1,0,3c8-0.4,10.8,6.9,13.4,13.2
				c0.9,2.1,1.7,4.3,2.7,6.5c0.9,2,2.2,3.8,2.5,6c0.6,4.5-2.4,7.5-6.8,6.6c-6.1-1.3-9.4-10-11.9-15.1c-2-4-7.3-16.3,0.7-16.5
				C559,439.6,559,436.6,557.1,436.7L557.1,436.7z"/>
		</g>
	</g>
	<g>
		<g>
			<path class="st8" d="M758.6,451.9c-1.9,6.4-5.1,12.8-8.1,18.8c-3.1,6.2-4.8,13.3-8.6,19.1c-0.3,0.5-0.3,1.4,0.2,1.8
				c1.9,1.6,4.7,2.6,7,3.6c4.2,1.8,8.5,3.5,12.7,5.3c1.8,0.8,3.3-1.8,1.5-2.6c-3.3-1.4-6.5-3-10-4.3c-2.8-1-6.8-2.2-9.2-4.2
				c0.1,0.6,0.2,1.2,0.2,1.8c4.2-6.3,6.2-14,9.5-20.7c2.8-5.7,5.7-11.8,7.6-17.9C762,450.9,759.1,450.1,758.6,451.9L758.6,451.9z"/>
		</g>
	</g>
	<g>
		<g>
			<path class="st8" d="M794,475c0,9.8-0.2,19.7,0.2,29.5c0.1,2.6-0.1,7.5,1.5,9.6c1.2,1.6,4,1.2,5.7,1.3c5.6,0.2,10-3.4,8.7-9.4
				c-1.4-6.2-9.6-6.6-14.8-7.1c0,1,0,2,0,3c4.4-0.1,9.6-0.5,13.6-2.2c3.7-1.6,4.4-4.6,4.6-8.4c0.6-9.4-8.8-15.3-16.9-17.1
				c-1.9-0.4-2.7,2.5-0.8,2.9c6.4,1.4,14.1,5.6,14.6,12.8c0.1,1.4,0.1,3.4-0.4,4.7c-1,2.4-3,2.7-5.2,3.2c-3.1,0.7-6.4,1.1-9.5,1.1
				c-2,0-1.9,2.8,0,3c2,0.2,4.1,0.4,6,1c4.7,1.4,9.1,7.4,2.4,9.3c-0.6,0.2-5.4,0.6-5.2,0.7c-1-0.6-1.2-6.8-1.3-7.5
				c-0.6-10.1-0.2-20.2-0.2-30.3C797,473.1,794,473.1,794,475L794,475z"/>
		</g>
	</g>
	<g>
		<g>
			<path class="st8" d="M616.1,293.1c0.2,3.2,2.1,5.8,3.3,8.7c1.2,3.2,1.4,6.8,2.7,10c1.7,4.3,3.8,8.4,5.4,12.8
				c0.8,2.4,1,5.6,3.2,7.2c0.6,0.4,1.3,0.2,1.8-0.2c4.2-3.6,9.7-7.4,8.1-14c-1.5-6.2-9.2-6.4-14.3-6.7c0.3,0.9,0.5,1.9,0.8,2.8
				c1.5-1,3.5-1.1,5-1.9c1.9-1.1,3.5-3,4.8-4.7c2.2-2.9,2.2-6.2,0.7-9.5c-2.9-6.7-12.3-10-19-7.3c-1.8,0.7-1,3.6,0.8,2.9
				c4.8-1.9,11.8-0.2,14.6,4.2c2.9,4.6,0.2,10-4.5,12.2c-1.4,0.6-2.8,0.7-4.1,1.6c-1.2,0.9-0.8,2.7,0.8,2.8
				c4.7,0.3,13.5,0.4,10.8,8.3c-1.2,3.5-4.1,5.1-6.8,7.3c0.6-0.1,1.2-0.2,1.8-0.2c-0.7-0.5-0.9-2.8-1.2-3.6c-0.6-1.8-1.3-3.7-2-5.5
				c-1.1-3.1-2.7-5.9-3.9-8.9c-1.3-3.1-1.6-6.5-2.7-9.7c-1-2.8-3.1-5.4-3.3-8.4C618.9,291.2,615.9,291.2,616.1,293.1L616.1,293.1z"
				/>
		</g>
	</g>
	<g>
		<g>
			<path class="st8" d="M767.1,493.7c2.6-6.2,5.3-12.4,7.9-18.7c1.5-3.6,2.7-7.5,4.7-10.8c0.3-0.5,4.9-7.4,5.8-7.4
				c1.7-0.1,0.7,5.6,0.7,6.6c-0.1,3.5,0,6.9-0.3,10.4c-0.6,6.6-0.8,13.5-1.9,20c-0.3,1.9,2.6,2.7,2.9,0.8c1.4-8.4,2.1-17.5,2.3-26
				c0.1-3.7,0.4-7.4,0.4-11.1c0-1.7-0.2-3.9-2.1-4.5c-4-1.2-9.2,7.7-10.7,10.3c-2.5,4.4-4,9.5-6,14.2c-2.1,4.9-4.1,9.8-6.2,14.6
				C763.8,494,766.4,495.5,767.1,493.7L767.1,493.7z"/>
		</g>
	</g>
	<g>
		<g>
			<path class="st8" d="M774.6,479.6c2,0.8,3.8,0.8,5.9,0.5c2.4-0.4,4.9-0.5,7.3-1.2c1.8-0.5,1.1-3.4-0.8-2.9
				c-1.9,0.6-3.8,0.6-5.7,0.9c-2.1,0.3-3.8,0.6-5.9-0.2C773.6,476,772.8,478.9,774.6,479.6L774.6,479.6z"/>
		</g>
	</g>
	<g>
		<g>
			<path d="M443.2,190.4c1.9,0,1.9-3,0-3C441.2,187.4,441.2,190.4,443.2,190.4L443.2,190.4z"/>
		</g>
	</g>
	<g>
		<g>
			<path d="M644.2,91.6c1.9,0,1.9-3,0-3C642.2,88.6,642.2,91.6,644.2,91.6L644.2,91.6z"/>
		</g>
	</g>
	<g>
		<g>
			<path d="M678.2,92.3c1.9,0,1.9-3,0-3C676.2,89.3,676.2,92.3,678.2,92.3L678.2,92.3z"/>
		</g>
	</g>
	<g>
		<g>
			<path d="M650.8,98.5c-0.1,7.4-0.2,14.8,2.4,21.9c1.3,3.7,4.1,6.6,8,6.9c4.8,0.5,8.4-2.4,10-7c1.1-3,0.7-6.2,0.7-9.2
				c-0.1-4,0.5-7.9,0.4-11.9c0-1.9-3-1.9-3,0c0,4.5-0.4,9-0.4,13.5c0.1,4.8-1,12.5-7.8,11.6c-4.9-0.7-5.6-6.5-6.4-10.3
				c-1.2-5.3-1.1-10.1-1-15.5C653.8,96.6,650.8,96.6,650.8,98.5L650.8,98.5z"/>
		</g>
	</g>
	<g>
		<g>
			<path class="st9" d="M679.6,55.6c4.7-1.6,8.7-5.8,12.6-8.8c3-2.3,6.3-3.9,9.6-5.6c2-1,5.9-4,8.1-4.1c-0.4-0.9-0.7-1.7-1.1-2.6
				c-4.3,3.4-8.4,6.8-12.2,10.7c-4,4.1-7.7,8.8-11.9,12.5c-1.5,1.3,0.7,3.4,2.1,2.1c4.3-3.7,8-8.4,11.9-12.5
				c3.8-3.9,7.9-7.3,12.2-10.7c1-0.8,0.2-2.7-1.1-2.6c-2.2,0.2-4.5,1.9-6.4,2.9c-3.4,1.7-6.9,3.4-10.1,5.4c-2.4,1.6-4.6,3.3-6.9,5
				c-2.4,1.8-4.7,4.3-7.6,5.3C677,53.4,677.8,56.3,679.6,55.6L679.6,55.6z"/>
		</g>
	</g>
	<g>
		<g>
			<path class="st9" d="M658.3,56.6c0-6.8,0-12.9,1.5-19.5c0.9-4.2,0.9-8.9,2.2-13c-1,0-1.9,0-2.9,0c3.1,11,3.1,22.6,4.6,33.8
				c0.2,1.9,3.2,1.9,3,0c-1.5-11.6-1.5-23.3-4.7-34.6c-0.4-1.5-2.4-1.4-2.9,0c-1.5,4.6-1.5,9.9-2.6,14.5c-1.5,6.2-1.2,12.3-1.2,18.7
				C655.3,58.6,658.3,58.6,658.3,56.6L658.3,56.6z"/>
		</g>
	</g>
	<g>
		<g>
			<path class="st9" d="M700.3,68.9c5-0.5,9.5-3.4,14.3-4.6c5.1-1.4,11-3.5,16.4-3.4c-0.3-0.9-0.5-1.9-0.8-2.8
				c-5.4,3.6-11.5,6.3-17,9.7c-3.8,2.4-8.2,4.3-11.6,7.2c-1.5,1.2,0.7,3.4,2.1,2.1c3.5-2.9,8.4-5.1,12.2-7.5
				c5.1-3.2,10.8-5.6,15.8-8.9c1.2-0.8,0.8-2.8-0.8-2.8c-4.7-0.1-9.7,1.6-14.2,2.8c-2.5,0.6-4.9,1.2-7.3,2.1c-2.9,1-6.1,2.9-9.2,3.2
				C698.4,66.1,698.3,69.1,700.3,68.9L700.3,68.9z"/>
		</g>
	</g>
	<g>
		<g>
			<path class="st9" d="M636.4,60.3c-5.9-1.2-11.2-6.6-15.5-10.5c-2.9-2.6-8.3-8.3-8.7-12.3c-0.6,0.5-1.3,1-1.9,1.4
				c3,0.8,5.6,3,8.3,4.5c2.5,1.3,5,2.6,7.4,4.1c2.7,1.7,5.2,3.7,7.8,5.6c2,1.5,4.2,2.3,6.3,3.7c1.6,1.1,3.1-1.5,1.5-2.6
				c-2.7-1.8-5.5-3.1-8.1-5.1c-2.2-1.8-4.6-3.3-7-4.7c-4.6-2.9-10.2-6.9-15.4-8.3c-0.9-0.2-2,0.5-1.9,1.4c0.5,4.9,5.4,10.4,8.9,13.7
				c4.8,4.5,10.9,10.6,17.5,12C637.5,63.6,638.3,60.7,636.4,60.3L636.4,60.3z"/>
		</g>
	</g>
	<g>
		<g>
			<path class="st9" d="M619,75.1c-2.6-0.3-5.4-2.5-7.7-3.6c-2.3-1.2-4.6-2.3-6.9-3.6c-2.1-1.2-4.4-2-6.4-3.4
				c-2.7-1.9-4.3-4.7-6.5-7c-0.2,0.8-0.4,1.7-0.7,2.5c3.1-0.4,7,1,10,1.8c3.4,0.9,6.8,1.8,10.1,3.3c4.7,2,9.7,4,14.7,5.2
				c1.9,0.4,2.7-2.5,0.8-2.9c-6.4-1.5-12.5-4.6-18.7-6.7c-5.2-1.8-12-4.3-17.6-3.5c-1.2,0.2-1.4,1.8-0.7,2.5c2,2.1,3.5,4.7,5.8,6.5
				c2.6,2.1,6,3.3,8.9,4.9c4.4,2.5,9.8,6.5,14.9,7C620.9,78.3,620.9,75.3,619,75.1L619,75.1z"/>
		</g>
	</g>
	<g>
		<g>
			<path class="st9" d="M617.7,86.7c-6.2,0-12.3,0.1-18.4,1.1c-4.2,0.7-10.5,1.6-13.7,4.7c-0.4,0.4-0.6,1-0.4,1.5
				c1.6,4.4,8.4,3.6,12,3.8c7.7,0.4,15.2,0.3,22.9-0.3c1.9-0.1,1.9-3.1,0-3c-4.9,0.4-9.7,0.5-14.5,0.6c-3.1,0.1-6.1-0.3-9.2-0.4
				c-1.1,0-2.2,0.1-3.3,0c-0.9-0.1-1.8-0.3-2.7-0.4c-2.1-0.7-2.5-0.9-1.4-0.7c0.8-0.9,5.1-1.4,6.4-1.8c2.3-0.6,4.5-1.1,6.9-1.4
				c5.2-0.6,10.3-0.8,15.5-0.8C619.6,89.7,619.6,86.7,617.7,86.7L617.7,86.7z"/>
		</g>
	</g>
	<g>
		<g>
			<path class="st9" d="M618.8,109.4c-6,0-10.5,0.8-15.6,4.3c-3.4,2.3-8.6,6.2-9.9,10.3c-0.3,0.9,0.5,1.9,1.4,1.9
				c2,0,3.7-1.1,5.7-1.3c2.7-0.3,5.4,0.3,8.1-0.2c2.6-0.5,5.2-1.7,7.7-2.5c3.4-1.1,7-1.3,10.6-1.6c1.9-0.1,1.9-3.1,0-3
				c-5.6,0.4-10.4,1.3-15.7,3.1c-3.4,1.2-6.4,1.1-9.9,1.2c-2.2,0-4.4,1.3-6.5,1.3c0.5,0.6,1,1.3,1.4,1.9c1-3.1,6.5-7.4,9.2-9.1
				c4.2-2.5,8.5-3.3,13.3-3.3C620.7,112.4,620.7,109.4,618.8,109.4L618.8,109.4z"/>
		</g>
	</g>
	<g>
		<g>
			<path class="st9" d="M691.2,116.4c5,0.9,8.8,4.4,13.4,6.4c3.8,1.7,7.3,2.7,10.8,5c1.2,0.8,2.4-0.5,2.2-1.7
				c-0.7-4.4-2.8-9.7-7-11.8c-5.3-2.8-10.7-5.3-16.5-7c-1.9-0.5-2.6,2.3-0.8,2.9c2.4,0.7,4.7,1.3,7,2.3c2.1,1,3.9,2.4,6,3.3
				c5,2.2,7.5,5.7,8.4,11.1c0.7-0.6,1.5-1.1,2.2-1.7c-3.9-2.6-8-3.8-12.3-5.8c-4.3-2.1-7.9-5.1-12.6-5.9
				C690.1,113.2,689.3,116,691.2,116.4L691.2,116.4z"/>
		</g>
	</g>
	<g>
		<g>
			<path class="st9" d="M699.5,97.3c6.7,0,13.1,0.3,19.7,1.1c4.2,0.5,10,3.3,14.1,1.4c0.7-0.3,0.9-1.4,0.5-2.1
				c-1.2-1.9-2.9-4.9-4.8-6.2c-2.2-1.5-6-1.8-8.5-2.4c-3.4-0.9-6.9-1.3-10.4-1.3c-3.9-0.1-7-0.6-10.7-1.5c-0.6-0.1-1.4,0.1-1.7,0.7
				c0,0.1-0.1,0.2-0.1,0.2c-0.8,1.7,1.8,3.3,2.6,1.5c0-0.1,0.1-0.2,0.1-0.2c-0.6,0.2-1.1,0.5-1.7,0.7c2.3,0.5,4.4,1.3,6.7,1.6
				c3.6,0.4,7.1-0.1,10.7,0.5c2.8,0.4,5.4,1.3,8.2,1.9c3.4,0.8,5.2,3.1,7.1,6c0.2-0.7,0.4-1.4,0.5-2.1c-2.4,1.1-6.4-0.9-8.9-1.4
				c-1.7-0.4-3.4-0.5-5.2-0.7c-6.2-0.7-12.1-0.9-18.3-0.9C697.5,94.3,697.5,97.3,699.5,97.3L699.5,97.3z"/>
		</g>
	</g>
</g>
</svg>
