<svg xmlns="http://www.w3.org/2000/svg" viewBox="0 0 661.7 587.72"><defs><style>.cls-1{fill:#acd7e5;}.cls-2,.cls-6{fill:#fff;}.cls-3{fill:#d9e021;}.cls-4{fill:#1b1464;}.cls-5{fill:#c1272d;}.cls-6{font-size:24px;font-family:VesperLibre-Regular, Vesper Libre;}</style></defs><title>studio_background_hover</title><g id="Layer_1" data-name="Layer 1"><path class="cls-1" d="M563,274.9c0-1.45.11-2.85.27-4.28l-3.21,23.93a28.93,28.93,0,0,1,2-6.44L553,309.6c6.3-13.57,14.93-26.71,24-38.57L562.9,289.25c9.71-11.14,20.5-21.53,30.71-32.24C604,246.14,615.41,236.76,627,227.31l-18.21,14.07c6.63-5.08,14-9.34,20.93-14A138.18,138.18,0,0,1,652.39,215l-21.5,9.07c14.12-5.39,28.58-9.64,43.56-11.7l-23.93,3.21c18.89-2.48,37.65-2.93,56.67-3.28,9.38-.18,18.78-.68,28.15.13,9.08.79,18.3.6,27.33,1.8l-23.93-3.21c11,1.71,22.05,4.22,32.37,8.43l-21.5-9.07a135.58,135.58,0,0,1,29.07,17.26l-18.21-14.07a149.93,149.93,0,0,1,25.19,24.34l-14.07-18.21c11.59,15,21.09,32.73,28.59,50.12l-9.07-21.5c5,11.92,9.84,23.59,11.74,36.46l-3.21-23.93c1.5,11.22,3.15,23.16,2.11,34.47L805,271.41a60.7,60.7,0,0,1-4.58,15.33l9.07-21.5a58.88,58.88,0,0,1-7.2,12.71l14.07-18.21a39.2,39.2,0,0,1-5.21,5.19l18.21-14.07c-5.06,3.75-10.42,7.87-16.23,10.34l21.5-9.07c-36.53,14.09-74.21,27.11-113.14,32.55l23.93-3.21c-20.72,2.76-41.61,3.45-62.5,3.53-20.4.07-41.45,1.43-61.72-1.18L645.08,287a139.27,139.27,0,0,1-33.76-9.42l21.5,9.07c-11.5-4.88-22.58-10.62-33.76-16.15-10.45-5.16-21.46-9.52-30.84-16.57L586.43,268a85.91,85.91,0,0,1-13.13-13.34l14.07,18.21a85.17,85.17,0,0,1-10.21-17.17l9.07,21.5a31,31,0,0,1-1.81-6.35l3.21,23.93a14.81,14.81,0,0,1,0-3.21l-3.21,23.93a21,21,0,0,1,1.29-4.61l-9.07,21.5a53.67,53.67,0,0,1,6.67-10.87l-14.07,18.21a110.19,110.19,0,0,1,16.34-16l-18.21,14.07a83.79,83.79,0,0,1,18.19-10.39L564,336.46c30.71-12.75,64.1-20.91,97-25.59l-23.93,3.21a225.35,225.35,0,0,1,57.77-.64l-23.93-3.21a106.62,106.62,0,0,1,25.25,6.4l-21.5-9.07a92.52,92.52,0,0,1,19.56,11.34L676,304.82a77.13,77.13,0,0,1,13.39,13.28l-14.07-18.21c5.23,7.1,10.61,14.62,14.13,22.74l-9.07-21.5a30.64,30.64,0,0,1,1.82,6.31L679,283.51l0,1,3.21-23.93-.24.93L691,240l-.44.86,14.07-18.21a6.82,6.82,0,0,1-1.37,1.5l18.21-14.07a20.51,20.51,0,0,1-3.93,2.27l21.5-9.07c-9.51,3.84-19.87,5.86-30,7.25L733,207.32a150.26,150.26,0,0,1-38.11.09l23.93,3.21c-15.32-2.16-30.18-6.38-45.25-9.76-21.19-4.75-42.86-7.07-64.44-8.75L633,195.33l-1.29-.25,21.5,164.5a27.32,27.32,0,0,1,3.6-1.9l-21.5,9.07c7.26-2.76,15.3-4.06,22.82-6Q671,357.37,684,354.59c17.76-3.83,35.67-6.94,53.53-10.27,9.19-1.71,18.3-3.9,27.38-6.15,7.64-1.9,15.66-2.8,23.18-5.06,33.53-10.08,62.75-36.49,70.22-71.73,2.06-9.69,3.71-20.93,3.39-31.29-.11-3.59-.56-7.19-.14-10.76l-3.21,23.93a9.3,9.3,0,0,1,.86-2.68l-9.07,21.5.77-1.21-14.07,18.21a20.08,20.08,0,0,1,2.59-2.45l-18.21,14.07a27.25,27.25,0,0,1,4.82-2.7l-21.5,9.07a14.69,14.69,0,0,1,2.55-.76l-23.93,3.21a8.66,8.66,0,0,1,2.38-.16,67.78,67.78,0,0,0,34.68-7.75,67.46,67.46,0,0,0,29-18.61,67.46,67.46,0,0,0,18.61-29,67.78,67.78,0,0,0,7.75-34.68c-1-23.28-8.69-47.42-26.36-63.64S810,119.5,785.56,119.37c-.81,0-1.57.11-2.38.16A171.74,171.74,0,0,0,758,123.05a92.86,92.86,0,0,0-25.9,11.08c-3.78,2.3-7.76,5.81-10.81,8.17-1.54,1.19-7.63,5.35-10.55,8.26-3.1,3.09-5.63,7-8.19,10.34-10,13-10.16,12.14-16.88,31.82-.31.91-.6,1.76-.86,2.68l-3.21,23.93-.17,1.42c-.08,1.93.08,3.84.18,5.77a67.4,67.4,0,0,1,0,10.94l3.21-23.93a21.2,21.2,0,0,1-.88,3.46l9.07-21.5a9.23,9.23,0,0,1-1.09,2l14.07-18.21a7.58,7.58,0,0,1-1.61,1.62l18.21-14.07a11,11,0,0,1-2.36,1.27l21.5-9.07c-5.79,2.16-12.06,2.39-18,3.92q-10.79,2.78-21.66,5.26c-14.06,3.2-28.33,5.53-42.5,8.17-14,2.61-28,5.52-41.83,8.92-18.67,4.6-38.84,8.49-55.29,18.86l-18.21,14.07-14.07,18.21L521,257.94a68.17,68.17,0,0,0-1.61,35.89,44.79,44.79,0,0,0,6.14,22.71,45,45,0,0,0,11.57,19.86,45.22,45.22,0,0,0,16.14,16.14,67.78,67.78,0,0,0,30.61,16.11c15.07,3,30,3.22,45,5.2L605,370.63c13.5,1.9,26.64,5.25,39.88,8.41,20.3,4.85,41.28,8.55,62.12,9.47,20,.89,40.69-2.18,60.2-6.11A134,134,0,0,0,783.72,378a167.43,167.43,0,0,0,25.73-10.73,31,31,0,0,0,2.87-1.79c6.26-4.29,14.44-10,19.58-15.58,10.59-11.5,19.89-25.06,23.59-40.57a186.59,186.59,0,0,0,3.46-24.86,85.35,85.35,0,0,0-4.53-30c-4.24-12.53-9.68-24.82-17-35.84a315.27,315.27,0,0,0-23.13-30.83c-8.43-9.79-20.51-18.14-30.49-25.36a91.89,91.89,0,0,0-14.62-8.74C757.05,148,744.48,142.19,731.37,139a258.36,258.36,0,0,0-62.44-7c-35.17.27-70.54,6.57-104.6,15.17a395.17,395.17,0,0,0-38.88,12.1c-11.93,4.36-23.74,9.19-35.19,14.65-12,5.7-22.63,14.77-32.64,23a116.78,116.78,0,0,0-12.45,11.69A281.66,281.66,0,0,0,426.83,232a59.12,59.12,0,0,0-5,8.16c-8.72,17.27-14,31.84-14.2,51.44a109,109,0,0,0,3.94,30.34A144.76,144.76,0,0,0,428,358.25c14.37,22.63,33.21,42.16,56.39,55.86,11.32,6.69,23.72,11.82,35.49,17.67,18.57,9.24,37.64,18.47,57.49,24.49a137.11,137.11,0,0,0,19.82,4.31c14,2.07,28.14,4.38,42.36,4.42,28.2.08,56.56.7,84.7-1.37a495.92,495.92,0,0,0,105.06-19.37c13.12-3.88,25.9-8.42,38.69-13.28,12.15-4.62,23.91-8.94,35.9-14.37,5.84-2.64,11-6.63,16.23-10.34,7.68-5.47,16.05-11.14,22.49-18.14a165.47,165.47,0,0,0,17.54-22.89c7-11,11.51-23.85,15.88-36,7-19.42,6.4-40.18,4.47-60.29-1.3-13.63-2.67-27.4-5.72-40.77-1.51-6.61-4.11-12.75-6.62-19-7.64-19.09-15.66-37.54-25.48-55.54a256.18,256.18,0,0,0-34.23-48.25c-12.78-14.24-28.95-26.25-44.41-37.13C848.21,57,829.43,48.87,811.1,43c-19.58-6.26-40.95-8.91-61.33-9.57-6.38-.2-12.69-1-19.06-1.29-7.21-.34-14.43,0-21.64.13-14,.32-27.88.24-41.82,1.45-13.6,1.18-27.14,3.2-40.65,5.09a145.84,145.84,0,0,0-21.31,4.25,287.14,287.14,0,0,0-55.72,22.64A264.42,264.42,0,0,0,518,86c-15.89,11.89-32.56,24.41-46.61,38.58-9.07,9.15-18.13,18.49-26.69,28.11-2.14,2.4-4.52,4.52-6.76,6.82-7,7.17-12.67,15.53-18.52,23.65-4.27,5.93-8.39,12-12.19,18.24-3.15,5.18-6.26,10.48-9,15.9-10.06,20.1-14.65,34.81-15.24,57.64a67.78,67.78,0,0,0,7.75,34.68,67.46,67.46,0,0,0,18.61,29,67.46,67.46,0,0,0,29,18.61A67.78,67.78,0,0,0,473,364.9c23.28-1,47.42-8.69,63.64-26.36l14.07-18.21A89.58,89.58,0,0,0,563,274.9Z" transform="translate(-382.95 -32)"/><path class="cls-1" d="M449.21,365.12c3.93,20.85,18.12,40.72,32,56.13a177.21,177.21,0,0,0,23.68,21.5c14.21,11,30,20.27,47.85,24.43,15.48,3.62,30.44,5.82,46.43,7.85l-23.93-3.21c18.85,2.75,37.55,6.65,56.63,7.84,19.3,1.2,38.27-1.58,57.34-4.61,11.62-1.85,22.58-5.83,33.67-9.6,17.45-5.93,34.72-12.82,50.77-21.94,9.56-5.44,18.9-10.77,28-16.94,10.38-7,20.33-14.83,30-22.82a120.11,120.11,0,0,0,13.24-12.52c5.23-5.88,10.49-13.1,15.12-19.48.94-1.3,1.89-2.57,2.71-4,4.71-7.94,7.79-17.15,11.21-25.67A73.69,73.69,0,0,0,878.07,327c2-11.47,4.63-23.22,4.62-34.77,0-4.47-1.33-11-1.74-14-.91-6.78-.73-9.07-2.15-13.84s-7-18.1-9.54-22.36c-3.4-5.77-10.88-14.91-15.45-19.78-14.46-15.37-34.1-22-53.5-28.35-5.55-1.81-10.83-3.74-16.61-4.79-20.94-3.84-41.77-5.11-63-5.11a67.78,67.78,0,0,0-34.68,7.75,67.46,67.46,0,0,0-29,18.61,67.46,67.46,0,0,0-18.61,29,67.78,67.78,0,0,0-7.75,34.68c1,23.28,8.69,47.42,26.36,63.64s39.25,26.35,63.64,26.36c12.43,0,25,0,37.34,1.63l-23.93-3.21c9.71,1.52,19.42,5,28.64,8.32l-21.5-9.07a16.73,16.73,0,0,1,3.44,1.94l-18.21-14.07.77.75L713.23,332a6.49,6.49,0,0,1,1.07,1.67l-9.07-21.5a7.54,7.54,0,0,1,.54,1.87l-3.21-23.93a23.7,23.7,0,0,1-.17,5.55l3.21-23.93c-1.07,7.7-2.28,15.32-5.3,22.54l9.07-21.5a44.2,44.2,0,0,1-4.84,8.13l14.07-18.21c-5.37,6.5-12,12.09-18.63,17.24l18.21-14.07a174.51,174.51,0,0,1-24.92,16.21c-8.84,4.55-17.09,10-26.22,14l21.5-9.07c-16.06,6.73-33.61,12.64-50.89,15l23.93-3.21a171.93,171.93,0,0,1-42.71-.4l23.93,3.21c-15.74-2.14-31.26-5-47.07-7l23.93,3.21c-4.33-.64-8.45-2-12.71-2.92-3.69-.82-7.4-1.35-11-2.65l21.5,9.07a73.71,73.71,0,0,1-12.66-7L623,308.44c-3.1-2.54-5.51-5.64-8.33-8.46s-5.78-5.31-8.24-8.46l14.07,18.21a49,49,0,0,1-5-8l9.07,21.5a29.19,29.19,0,0,1-1.82-6,67.78,67.78,0,0,0-16.11-30.61,68,68,0,0,0-25.25-23.18A67,67,0,0,0,548,252.8a68.17,68.17,0,0,0-35.89,1.61c-21.78,7-42.79,20.54-53.79,41.36l-9.07,21.5a90.64,90.64,0,0,0,0,47.85Z" transform="translate(-382.95 -32)"/></g><g id="Layer_2" data-name="Layer 2"><path class="cls-2" d="M552.62,161.89c1.07-13.81-11.71-25.36-24.29-28.31-4.28-1-11.4-3.94-15.17-.34s-3.1,9.47-1,13.48c8.11,15.27,22.84,25.45,31.26,40.41,2.2,3.91,3.94,8,5.84,12.1,2.18,4.65,4.87,9.08,6.75,13.87,3.2,8.17,4.46,22.87-4.11,28.28-4,2.52-10.23,2.76-14.87,2.52-6.36-.32-10.1-4.35-12-10.11a61.86,61.86,0,0,1-2.55-14.58c-.26-3,.24-6.88-1.36-9.47-1-1.64-3.61-.13-2.59,1.51.78,1.25.49,3.31.57,4.75.13,2.12.43,4.32.64,6.46a57.65,57.65,0,0,0,2.14,11.37c1.61,5.16,4.57,10.21,9.92,12.18s14.31,1.33,19.64-1c5.53-2.38,8.59-7.42,9.42-13.22A39.9,39.9,0,0,0,558,210.08c-3.64-8.17-7.6-16.67-12-24.47-8.29-14.74-22.72-24.74-30.82-39.64-2.83-5.21-2.18-12.54,5.6-11,4.12.83,8.42,1.58,12.22,3.44,9,4.45,17.44,12.58,16.6,23.45-.15,1.93,2.85,1.92,3,0Z" transform="translate(-382.95 -32)"/><path class="cls-2" d="M584.81,144.76c-.93,8.19.82,16.28,2.65,24.21,2,8.52,3.89,17.17,5.31,25.79,1.39,8.39,2.23,16.83,3.63,25.2a89.12,89.12,0,0,0,3,11.78c.54,1.73.77,3.57,1.32,5.29.33,1,1.31,2.3,1.43,3.34.22,1.89,3.23,1.92,3,0-.31-2.66-1.69-5.31-2.42-7.95-1.07-3.86-2.39-7.54-3.12-11.5-1.47-8-2.34-16.31-3.55-24.4-1.24-8.3-3.07-16.62-4.9-24.82-2-8.85-4.37-17.78-3.33-26.94.22-1.92-2.78-1.9-3,0Z" transform="translate(-382.95 -32)"/><path class="cls-2" d="M558.85,142.67a57.35,57.35,0,0,0,12.34,1.07c4.19-.07,8.39-.29,12.59-.34,4.91-.05,9.55-.19,14.45-.67,4.3-.42,9.5-1.47,13.78-.6,1.88.38,2.69-2.51.8-2.89-8.24-1.67-17.27,1.47-25.6,1.31-9.31-.18-18.32,1-27.56-.76-1.89-.35-2.7,2.54-.8,2.89Z" transform="translate(-382.95 -32)"/><path class="cls-2" d="M622.65,138c.13,8.5,3,17.23,4.1,25.66,1.18,8.68,1.83,17.12,2.25,25.87.38,8,2.57,16.66,5.21,24.16,2.21,6.28,3.76,13.56,8,18.85a26.08,26.08,0,0,0,16.51,9.83c6,1,9.35-1.91,11.86-7.22,2.6-5.52,3.84-12.34,4.26-18.41.58-8.47-3-17-4.61-25.27-1.88-9.89-4-19.72-6.28-29.52-1.18-5.07-2.47-10.17-2.16-15.42.2-3.39.65-6.43-.74-9.62-.77-1.76-3.36-.24-2.59,1.51,1.73,3.93,0,9.33.49,13.54a110,110,0,0,0,2.54,12.62q3.19,13.79,5.85,27.68c1.83,9.61,5.48,18.64,3.92,28.52A56.19,56.19,0,0,1,668.68,232c-.82,2.17-2.07,4.9-3.9,6.44-2.26,1.89-4.82,1.11-7.42.57-10.22-2.13-15.07-10.93-18.13-20a182.09,182.09,0,0,1-6.7-24.6c-1.66-8.84-.43-18.11-2.11-27-.88-4.65-1.53-9.38-2.28-14.05-.81-5-2.4-10.23-2.48-15.34,0-1.93-3-1.93-3,0Z" transform="translate(-382.95 -32)"/><path class="cls-2" d="M685.31,141.94c-.64,4.56.27,9.36.35,14,.1,6.06.81,12,1.25,18,.74,9.93,2.43,19.73,2.82,29.6.19,4.89,1.76,9.73,2.43,14.57a91.57,91.57,0,0,1,.87,17.4c-.17,2.77-1.51,5.92,1,8,2,1.64,5.12,1.45,7.48,1.19,16.15-1.77,27.46-16.83,31.8-31.54,1.27-4.31,1-8.95,1.39-13.39a103.48,103.48,0,0,0,0-15.54c-.63-10.12-2.41-18.75-8.11-27.28-5.41-8.1-10.89-16.46-20.13-20.54-3.87-1.71-7.87-3.86-12.07-2.24-2.92,1.13-7.42,2.95-9.27,5.58-1.11,1.58,1.49,3.08,2.59,1.51.93-1.32,7.33-4.44,8.82-4.7,3.71-.65,10.17,3.05,13,5,6.81,4.6,11.54,12.14,15.81,19,4.92,7.94,5.86,16.26,6.42,25.39a113.74,113.74,0,0,1-.8,23.57c-2.15,14.29-14.47,30.1-29.22,32.1-1,.14-3.77.73-4.59,0-1.61-1.35-1.14-4.37-1.2-6.22-.14-4.35-.11-8.73-.41-13.07A88.82,88.82,0,0,0,694.16,212a101,101,0,0,1-1.3-13.94c-.21-4-1.5-7.93-1.85-12q-.57-6.53-1.12-13c-.4-4.74-.95-9.41-1.13-14.18-.1-2.54,0-5.1-.11-7.64-.13-2.85-.85-5.59-.44-8.46.27-1.89-2.62-2.7-2.89-.8Z" transform="translate(-382.95 -32)"/><path class="cls-2" d="M768,144.33a17.08,17.08,0,0,0-.46,8.06c.62,4.72.52,9.38,1,14.1.84,8.76,1.18,17.3,1.32,26.1.14,8.61-.14,17.08.67,25.67.36,3.87.33,7.66.39,11.54,0,2.69,2.1,6,1.55,8.48l1.45-1.1c-1.74,0-3.11-1.23-4.81-1.36a10.7,10.7,0,0,0-2.74.37c-3.22.57-7.13,1.74-10.31.64l-.4,2.95c2.6-.19,5.09.47,7.67.56,3.4.12,6.8-.51,10.2-.66,4.5-.19,9.42.09,13.73-1.44,1.81-.64,1-3.54-.8-2.89-4.65,1.65-10,1.1-14.85,1.44a73.55,73.55,0,0,1-8.28.55c-2.61-.11-5.05-.76-7.67-.56a1.51,1.51,0,0,0-.4,2.95c3,1,6.46.3,9.51-.18,1.79-.28,3.46-.87,5.28-.38,1.46.4,2.27,1,3.86,1a1.52,1.52,0,0,0,1.45-1.1c.66-2.94-1.18-5.06-1.47-7.95-.35-3.58.12-7.31-.18-10.94-.69-8.34-.6-16.46-.79-24.81s.14-16.77-.87-25.11c-.54-4.47-.52-8.83-.85-13.31-.31-4.07-1.59-7.81-.29-11.85.59-1.84-2.3-2.63-2.89-.8Z" transform="translate(-382.95 -32)"/><path class="cls-2" d="M753.77,141.49c3.61,1.44,7.67.76,11.49,1,4.72.3,9.55-.23,14,1.36,1.82.65,2.61-2.25.8-2.89-3.91-1.38-7.19-1-11.27-1.2-4.3-.16-10.31.4-14.26-1.17-1.79-.71-2.57,2.19-.8,2.89Z" transform="translate(-382.95 -32)"/><path class="cls-2" d="M837.33,138c-4.5-2.32-7.78-2.67-12.77-2.42-2.82.14-5.08,1.93-7.24,3.74-6.59,5.54-9.22,13.71-10.1,22-1.22,11.38-.87,22.55-.36,33.94A116.77,116.77,0,0,0,808,209.56c1,5.76.93,11.57,2.78,17.18,5.22,15.79,25.71,29.91,41.7,19.47,8.18-5.34,8.07-17.07,7.68-25.54-.27-5.88-.21-11.69-.12-17.57a58.71,58.71,0,0,1,.39-9.33,21.29,21.29,0,0,0,.43-6.51c-.65-5.88.2-11.68-.78-17.54-.91-5.46.35-11.42-2.09-16.62-1.75-3.72-5.08-5.92-8.28-8.29-2.36-1.75-4.18-4-6.51-5.75-2-1.5-4.46-2.29-6.71-3.32-1.74-.79-3.27,1.79-1.51,2.59,3.52,1.6,6.29,3,9.1,5.7s6.29,4.44,9,7.19c3.54,3.64,3.63,8.53,3.57,13.3,0,3.94,1.09,7.63,1.1,11.57,0,3.52-.45,6.79,0,10.3.63,4.78-.66,10-.65,14.85,0,8.9.34,17.81.31,26.7,0,5.13-1.85,12.48-6.39,15.68-3.47,2.45-8.85,3.39-13,2.93-9-1-18.29-7.75-22.31-15.8a39.24,39.24,0,0,1-3.86-14c-.4-4.22-1.18-8.43-1.44-12.65-.55-8.87-1.52-17.92-1.16-26.8.36-9.11-.09-20,4.21-28.27a22.68,22.68,0,0,1,8.45-9c4.29-2.53,9.56-1.74,14,.52,1.71.88,3.23-1.71,1.51-2.59Z" transform="translate(-382.95 -32)"/><path class="cls-3" d="M691.57,440.33c7.56-26.71,15.13-53.29,20.68-80.51,1.33-6.52,2.88-13,3.91-19.6s1.52-13,2.61-19.52c1.23-7.29,2.85-14.44,3.72-21.79.27-2.29.41-5.24.74-7.07.71-3.91,1.94-7.6,1.69-11.64l-26.52,3.59c2.45,6.48,5.62,12.55,7.35,19.29a126.85,126.85,0,0,1,3.25,19c1.38,13.9,1.69,27.95,2.83,41.88.56,6.81.56,13.62.93,20.43.41,7.5,2.11,14.82,3.67,22.13,1.31,6.17,1.6,12.59,3.68,18.57,2.4,6.87,5.85,13.3,8.94,19.87,2.08,4.41,7.16,6.36,11.66,6.69,4.68.34,8.8-1.56,13.1-3,4.58-1.56,9.49-2.4,14.2-3.5,9.92-2.31,19.73-5.48,29.74-7.29,9.8-1.77,19.88-2.31,29.77-3.6A123.35,123.35,0,0,1,841.23,433c2.37,0,4.7.15,7.07-.08a34.42,34.42,0,0,0,5-.75c3.24-.81.77.41-2.05-.58l-6-3.47.91,1-3.47-13.13c.57-1.74,3.82-4.45.89-2.28-1.89,1.4-3.73,2.85-5.56,4.33-3.39,2.74-6.86,5.4-10.22,8.18-6.18,5.12-11.62,11-17.91,16-6.55,5.21-12.68,11-19.43,16-7,5.1-14.21,9.92-20.68,15.68-2.91,2.59-5.61,5.41-8.48,8s-6.24,4.55-9,8.16c-3.43,4.41-5.15,10.49-3.6,16,.92,3.28,3.17,6.26,4.42,9a437.91,437.91,0,0,1,18.33,46.83c2.85,9,6.39,17.63,9.91,26.33,1.78,4.4,3.34,8.94,5.49,13.17.78,1.52,1.64,3,2.41,4.52s0-.29,0-.3q.55,2.07.32.36-.07-1.6-.12.15l13.5-13.5c-.13,0-3.47,0-2.66.12,1.4.16-2.15-.81-.63-.14a51.48,51.48,0,0,1-6.65-3.81c-4.77-3-9.6-5.92-14.08-9.38A333.33,333.33,0,0,1,751.45,556c-4.32-4.15-8.45-8.48-12.77-12.62-3.27-3.13-9.11-7.34-11.09-9.71-1.58-1.89-2.68-4.27-4.14-6.27a85.84,85.84,0,0,0-7.25-8.33c-4.43-4.68-8.2-8.52-14.37-10.9-4.11-1.59-10.31.15-13.13,3.47-3.11,3.66-7,6.42-10.31,9.93-3.58,3.86-7.16,7.68-10.93,11.36-7.1,6.93-13.55,14.76-20.25,22.08s-13.11,14.53-19.94,21.62A77.69,77.69,0,0,0,618,588.81c-1,1.56-2,3.09-3,4.68-1.86,3.07-.07-.07,1.84-.44l17.09,13c.26-2.65,2.39-7.28,3.27-10.4q1.82-6.44,3.63-12.88,3.78-13.38,7.57-26.75c4.75-16.8,8.8-34,14.37-50.57,2.3-6.81,5.19-14,1.41-21-3.06-5.62-8.08-7.64-14.05-8.37-.08,0-1.86-.17-.68,0,2.08.25-3.82-.51-3.19-.42q-3.51-.46-7-.8c-16.35-1.57-32.2-4.42-47.53-10.57-8.78-3.52-17.14-8.06-25.89-11.68a97.3,97.3,0,0,0-12.39-4.31c-3.81-1-9.14-1.79-12.19-3.12v23.31c9.2-6,18.43-9.1,29.3-11.92a283.22,283.22,0,0,1,33.89-6.73c12.46-1.65,26.05-3.73,38.6-2.41,12.8,1.35,25.84,3.36,38.76,2,7.25-.78,13.5-5.65,13.5-13.5,0-6.7-6.2-14.28-13.5-13.5-13.32,1.43-26.48-.89-39.68-2.07-14.09-1.26-29.21,1.32-43.15,3.23-24,3.28-50.76,8.09-71.34,21.61-7.56,5-10,19,0,23.31,9.54,4.15,19.83,5.48,29.42,9.48,10.13,4.23,19.78,9.47,30.08,13.34a156.39,156.39,0,0,0,30.58,8c5.69.9,11.4,1.6,17.13,2.12,2.65.24,5.3.45,7.94.76,1.39.16,2,.28,3.45.46q1.16.19,2.32.29,2.8.32-3.37-1l-4.84-4.84-.88-7.22-.22,1a17.85,17.85,0,0,0-.64,2.17c-.5,1.59-1.13,3.14-1.67,4.72-1.36,4-2.38,8.06-3.52,12.09l-9.12,32.23-8.92,31.53c-3,10.55-7.32,21.45-8.4,32.36-.93,9.39,9.32,14.53,17.09,13,10.4-2,14.08-12.91,19.65-20.46-.84,1.14.73-.8.86-.93q1.51-1.62,3.06-3.19c1.86-1.9,3.77-3.76,5.63-5.66,3.78-3.84,7.15-8,10.69-12,3.31-3.8,7-7.25,10.34-11,3.54-3.92,6.74-8.14,10.43-11.92,3.85-3.94,7.81-7.74,11.53-11.82s8.07-7.2,11.57-11.32l-13.13,3.47c-4.4-1.7-2.66-1.57-.73.46.76.8,1.47,1.66,2.23,2.47,1.61,1.75,3.76,3.67,5,5.26,3.33,4.33,6.32,9.43,10.85,13.33,9.37,8.09,17.78,17.16,26.92,25.5a307.15,307.15,0,0,0,30,24.19c9.7,6.83,21.51,15.27,34,14.18,7.67-.68,13-5.66,13.5-13.5.52-7.4-4.09-13.46-7-19.84.7,1.53-1.09-2.91-1.35-3.56q-1-2.52-2-5c-1.7-4.19-3.4-8.37-5-12.61-6.09-16.31-10.89-32.87-18.17-48.76-1.61-3.51-2.69-5.91-4.08-9.3-.86-2.09-1.68-4.22-2.68-6.25-1.83-3.71-2.09-5.5-2.49,1.2l-.29,4.85q-1.33,1-.22.17a18.69,18.69,0,0,0,3.23-2.49c1.64-1.33,3.22-2.74,4.76-4.18,3.05-2.86,6-5.86,9.14-8.58,5.91-5,12.57-9.21,18.73-14,7.11-5.49,13.77-11.54,20.81-17.13s13.08-12.17,20.09-17.75,15.71-10,18.89-19.79c1.51-4.62-.26-9.74-3.47-13.13-5.25-5.55-11.67-5.84-18.59-4,1.85-.49-.59.09-1.48.09-1,0-2.09-.07-3.14-.06-2.7,0-5.41.24-8.09.51-11.14,1.12-22.34,2.47-33.45,3.89-11.44,1.47-22.17,4.73-33.37,7.29q-8.06,1.84-16.1,3.76a51.07,51.07,0,0,0-6.26,1.89c-.89.34-1.85.62-2.72,1-2.71,1.26.93.47-1.31.31l11.66,6.69c-2.36-5-5.18-9.9-6.74-15-1.63-5.32-2.11-12.18-3.54-18.73-2.81-12.94-2.57-25.95-3.73-39.16-1.19-13.63-1.17-27.41-2.9-41a175.16,175.16,0,0,0-3.67-21.58c-1.73-6.73-4.91-12.82-7.35-19.29-2.37-6.27-7.79-10.73-14.81-9.67-6.25.94-12.13,6.45-11.71,13.26.13,2.13-.82,4.82-1.24,7.87-.45,3.31-.69,6.63-1.09,9.94-.72,5.8-2.24,11.55-3.16,17.35-2.09,13.15-3.92,26.09-6.6,39.15-5.45,26.58-12.92,52.55-20.3,78.64a13.5,13.5,0,1,0,26,7.18Z" transform="translate(-382.95 -32)"/><path class="cls-3" d="M570.33,465.74c18.46,5.29,37,10.45,55.41,15.75,8.93,2.56,17.94,6,27,7.76a45.15,45.15,0,0,0,6.92.7c.36,0,2.45.42.91.07.73.17,1.43.48,2.17.66,4.79,1.16,9.59,1,14.46,1,7.34.08,17.23,2.91,25.1,5.1,4.08,1.14,8.15,2.35,12.23,3.51a55.07,55.07,0,0,1,5.33,1.6c-2.31-.92,1.27.92,2,1.4-1.88-1.31,1.82,1.55,2.3,2,1.44,1.2,2.88,2.39,4.3,3.62a72.81,72.81,0,0,1,8.63,8.44c4.1,5,7.72,13.49,10.8,20,3.69,7.77,9.53,15,13,22.43,1.28,2.79,2.25,5.69,3.68,8.42a31.35,31.35,0,0,1,1.92,3.89c.71,2.58.89,5.07,1.89,7.61.36.92.77,2,1.22,2.86,1,2.06,1.54,4.58,1-.18l13.5-13.5a9.39,9.39,0,0,1-4-1.11,43.28,43.28,0,0,1-6.11-3.82c1.66,1.25-2.09-1.79-1.86-1.59-.75-.65-1.48-1.31-2.22-2-2.16-2-4.24-4-6.38-6A151.07,151.07,0,0,1,740.4,527c-3.53-5.25-7.79-9.91-11.14-15.22s-6.35-11-10.93-15.39c-5.08-4.92-11.55-8.77-17.54-12.47-5.35-3.3-10.68-6.8-16.16-9.87-6.88-3.85-14.57-4.73-21.33-.23-5,3.3-8,8.56-10.93,13.63-3,5.22-4.67,11.52-6.71,16.63-2.53,6.35-5.21,12.44-7.09,19a97.75,97.75,0,0,1-5.42,15.44c-2.31,4.89-4.3,9.95-4.53,15.43-.73,17.94,22.46,22.91,30.91,8a36.71,36.71,0,0,0,3.07-7.73c.3-1,.62-3.92-.38.38.46-2,2.28-4.32,3.33-6.07a142.17,142.17,0,0,1,11.18-15.59c4.17-5.2,8.2-10.49,12.27-15.76-1.85,2.4.91-.73.94-.83q-5.22,4.47-11.9.35l-1.7-2.84,0-1.25q0,2.4.1,0,1-1.91-.15.18a2.71,2.71,0,0,1,1.28-1.3c-6,4.19-8.74,11.8-4.84,18.47s12,8.17,18.47,4.84c6-3.07,11.44-6,17.78-7.75a15,15,0,0,1,4.29-.84c.35,0,4.32,0,2.59-.05.89,0,2.32.52.5-.56,1.27.75,2.3,2.32,3.33,3.37,9.1,9.28,25.6,16.92,36.71,6.82,4.62-4.2,4.73-11.16,2.11-16.36-2.89-5.74-7-10.71-10.12-16.34-3.23-5.89-6.79-11.61-9.83-17.61-5.58-11-9.5-21.32-9.32-33.58.11-7-1.12-13.89-1.54-20.83-.46-7.6-1.18-15.21-1.31-22.83-.22-12.4.94-26-3.34-37.91-5.15-14.32-25.57-12-26.52,3.59-.46,7.58-.43,15.19-1,22.76a134,134,0,0,1-3.5,19.57c-3.32,14.5-6.33,29-10.08,43.45a13.75,13.75,0,0,0,9.43,16.61c7.44,2,14.2-2.52,16.61-9.43,1.44-4.14,1.74-8.6,2.13-12.94q.11-1.44.25-2.88-.32,1.81.12-.64a21.26,21.26,0,0,1,.71-2.65q-.73,1.77.43-.32L686.88,437c-.62,1.8-1.25,3.6-1.93,5.38a31.84,31.84,0,0,1-1.45,3.56c-.84,1.78-1.7,3.54-2.68,5.24-.48.84-1,1.65-1.52,2.49-.18.3-1.24,1.86-.42.77a26.91,26.91,0,0,1-3.9,4.1c1.48-1.28-3.45,2-1,.9a13.2,13.2,0,0,1-2.47.73c1.55-.34.73.21-.21-.1s-1.61-.31-.15,0c-1.55-.31-1.14-.44.08.26,1.38.79-1.36-1.23-.39-.28.75.73-.59-1.81-.12-.21s-.16-.74-.25-1c-.21-.66-.44-1.3-.68-1.94-2.07-5.38-5.27-9.66-10.68-12-8.77-3.81-18.68-2.2-27.52-4.88l-7.18,26c7.64,2.3,16.38,2.18,24.28,3.56,9.41,1.64,18.87,2.9,28.4,3.62,17.43,1.33,35,2.06,52.43,2.63,16.85.54,34.25,1.56,51-.56a118.74,118.74,0,0,0,48.85-17.46c9.27-5.85,8-17.24,0-23.31-9.12-6.9-22.4-1.15-31,3.57-9.35,5.11-17.82,11.84-26.32,18.21-5.74,4.3-11.15,9-16.88,13.35,1.08-.81-3,1.87-2.5,1.59-2.13,1.2-.74-.1-.26.36l.68.16q3.92,2.9,2.17,1.2-1-1,.19.24-.53-.84-1-1.72a133.11,133.11,0,0,0-8.33-14.08,43,43,0,0,0-3.91-5.22c-.61-.66-1.31-1.85-.52-.35-1.67-3.2-2.42-6.79-4.32-9.93a13.5,13.5,0,0,0-23.31,13.63c1.43,2.36.24-.13,1.11,2.13.76,2,1.46,4,2.39,5.91,1.51,3.06,3.9,5.48,5.26,7.46,3.22,4.69,5.8,9.76,8.65,14.66,4.2,7.24,10.86,12.45,19.48,12.86,8.81.41,16.07-4,22.68-9.3,9.72-7.79,19.48-15.55,29.85-22.6A127.51,127.51,0,0,1,814.64,460q.79-.4,1.6-.77-1.92.77-.58.25c1-.37,2-.64,3.05-1,2.88-1-.6,0,.08-.06q1.66,0-1.64-.26-3.07-1.56-1.36-.37V434.54c-11.72,7.4-25.36,12.75-38.64,14.17-16.29,1.75-33.22.65-49.56.09-16.82-.58-33.7-1.28-50.49-2.56-7.77-.59-15.36-1.65-23-3-4.21-.73-8.43-1.38-12.67-1.92-3.52-.45-7.52-.64-9.79-1.33-7-2.1-14.71,2.52-16.61,9.43a13.72,13.72,0,0,0,9.43,16.61,93,93,0,0,0,17.75,3c1.08.11,7.31.76,7.32.75.23-.76-5.68-3.11-5.53-5.3a7.46,7.46,0,0,0,.65,2c3.95,11.79,13.26,20.1,26.07,20.54,23.88.82,35.63-23.85,42.23-42.87,2.18-6.28-2-13.57-7.82-15.93a13.61,13.61,0,0,0-16.86,5.52c-3.13,4.88-4.14,10.16-4.78,15.8-.22,1.91-.38,3.83-.53,5.74l-.14,1.42q.24-1.59,0-.19c-.26,1.06-.52,2.07-.88,3.11l26,7.18c3.9-15,7.07-30.15,10.49-45.27,3.6-15.91,4.08-31.5,5.07-47.69L697,377.5c2,5.51,1.95,7.33,2.2,12.92.33,7.25,0,14.51.28,21.77.62,15,2.34,29.87,2.71,44.84.36,14.59,6.25,28.37,12.65,41.28,3,6,6.57,11.73,9.8,17.62s7.52,11.12,10.54,17.12l2.11-16.36q3.94-3.76,8.53-2.69a12.47,12.47,0,0,1-1.5-.44q-1.36-.48.66.33-.76-.35-1.5-.75c-1-.59-2-1.2-3.07-1.78-.86-.49-2-2-.15,0-5-5.48-10.52-9.94-18-11.36-16.05-3-30.8,4.4-44.7,11.5l13.63,23.31c10.54-7.42,16.24-21.69,8.84-33.52-4.12-6.59-11.89-11-19.73-9.17-6.16,1.45-10.2,5.56-13.85,10.44-5.11,6.83-12.66,15.74-18.87,24.35a90.76,90.76,0,0,0-8.75,14.31,52.62,52.62,0,0,0-2.37,6.24c-.25.77-.48,1.55-.79,2.3l.58-1.48q-4.55,7.1,13.49-2.88l4.84,4.84c-.25-.34,1.79,7.24,1.07,3.7.11.56-.69,2.06,0,.93a19,19,0,0,0,1.2-3.67c-.7,2.38-.41,1.11.38-.47,1.16-2.35,2.24-4.74,3.22-7.17,3.07-7.56,4.39-15.69,7.43-23.26.91-2.26,3.17-7.09,4.39-10.5S674,504,675.69,501c.65-1.14,1.32-2.29,2-3.41l1-1.62c.93-1.52.83-.31.15-.24-.9.1-7.48,2.74-7.83,1.55.22.77,4.18,2.66,5,3.18,7.29,4.54,15.4,8.41,22.06,13.89,4.56,3.75,6.78,9.76,10.78,15.23,9.84,13.44,18.81,28.45,31.15,39.89,12.91,12,25.4,25.09,44,26.32,6.68.44,14.33-6.57,13.5-13.5a27,27,0,0,0-2.49-9.47c-.56-1.15-1.85-3.31-2-3.83-.2-.82-.33-3.48-.79-5a45.67,45.67,0,0,0-3.68-8.13c-1.62-3-3.17-7.3-5.18-11.22-2.11-4.11-4.82-7.87-7.27-11.78-4.76-7.59-8.2-16-12.39-23.94s-10.64-14.44-17.43-20.21c-6.62-5.63-12.8-10.92-21.25-13.52-9.16-2.82-18.45-5.46-27.82-7.45-4.91-1-9.86-2.06-14.84-2.67-3.92-.49-9.54.11-12.45-.48a67.91,67.91,0,0,0-7.15-1.53,22.94,22.94,0,0,0-3.11-.16c-.43,0-2.63-.2-.43.15-5-.8-10-2.92-14.91-4.34-22.25-6.49-44.58-12.68-66.86-19.06a13.5,13.5,0,0,0-7.18,26Z" transform="translate(-382.95 -32)"/><path class="cls-3" d="M688.41,451.69c-1.69,5.38-1.83,10.72-1.63,16.27.25,7,6,13.83,13.5,13.5,7.1-.32,13.76-5.94,13.5-13.5-.06-1.77-.22-3.54-.19-5.31,0-.42,0-.84.06-1.26,0-1.87-.26,1.37-.23,1.54-.17-1.1.7-3,1-4.07,2.11-6.74-2.49-15-9.43-16.61a13.79,13.79,0,0,0-16.61,9.43Z" transform="translate(-382.95 -32)"/><path class="cls-3" d="M750,452.67c2.15,0,4.39.18,6.53,0a1.52,1.52,0,0,0,1.06-2.56c-1.29-1.25-3.11-2.08-4.3-3.4l-1.06,2.56c1.71-.13,3.37,1.27,4.94,1.82a1.51,1.51,0,0,0,1.85-1.85,11.06,11.06,0,0,0-2.41-3.76L755.18,448c1.92.53,3.15,2.09,5,2.73,1.48.51,2.43-1.48,1.46-2.51a24.07,24.07,0,0,0-1.94-1.61l-1.06,2.56c1,0,4.18,1.84,5,2.43,1.34,1,3.15-1.3,1.82-2.36-1.16-.92-2.51-1.74-3.59-2.72L760.36,449a37.85,37.85,0,0,1,9.47,4.31,1.5,1.5,0,0,0,1.51-2.59,40.88,40.88,0,0,0-10.19-4.62,1.51,1.51,0,0,0-1.46,2.51c1.14,1,2.39,1.77,3.59,2.72l1.82-2.36c-1.64-1.25-4.36-2.93-6.48-2.84a1.52,1.52,0,0,0-1.06,2.56c.54.48,1.48,1.12,1.94,1.61l1.46-2.51c-1.82-.62-3.06-2.19-5-2.73a1.51,1.51,0,0,0-1.46,2.51,10.37,10.37,0,0,1,1.63,2.44l1.85-1.85c-2.13-.75-3.4-2.11-5.74-1.93a1.52,1.52,0,0,0-1.06,2.56c1.21,1.35,3,2.12,4.3,3.4l1.06-2.56c-2.14.2-4.38,0-6.53,0a1.5,1.5,0,0,0,0,3Z" transform="translate(-382.95 -32)"/><path class="cls-3" d="M785.41,427q0,2.88,0,5.77a23.4,23.4,0,0,0,.09,4.29c.26,1.4,2.06,1.3,2.74.36a16.63,16.63,0,0,1,1.43-1.72c1.33-1.4-.78-3.52-2.12-2.12a22.45,22.45,0,0,0-1.9,2.33l2.74.36a23.77,23.77,0,0,1,0-4.13q0-2.56,0-5.13a1.5,1.5,0,0,0-3,0Z" transform="translate(-382.95 -32)"/></g><g id="Layer_3" data-name="Layer 3"><path class="cls-4" d="M520,423.69c.92-10.83,1.43-21.71,2.6-32.52,1.1-10.15,3.64-20.06,5.45-30.1s2.54-21.29,3.72-30.65a148.36,148.36,0,0,1,3-14.69,56.3,56.3,0,0,0,1.49-8.32,17.66,17.66,0,0,0,.12-3.83q0-1.33,0-.41a4.6,4.6,0,0,1-2.1,3.69l-6,3.47.45-.17h-7.18l.44.11-6-3.47c-.11-.09-2.13-3.19-.89-1.14-.18-.29-.59-2.34-.5-1a19.11,19.11,0,0,0,.89,3.08c1.16,4.42,2,8.92,2.78,13.42,1.4,8.39,2.2,16.87,3.21,25.31,1.13,9.36,2.08,18.73,3.14,28.09a164.09,164.09,0,0,0,5.55,27.15c2.15,7.52,2.34,13,4.79,20.94,3.34,10.84,13.42,16.37,24.32,13.09a53.58,53.58,0,0,0,6-2.43c.52-.23,1-.47,1.57-.7-3.16,1.33-.23.13.38-.07a109.33,109.33,0,0,1,13.22-3.39c8.55-1.57,17.25-2.27,25.87-3.41,10.68-1.42,21.35-3.17,32.09-4.12a152.25,152.25,0,0,0,15.78-1.76c1.82-.36,3.61-.92,5.41-1.35.65-.16,1.3-.32,2-.44q-1.88.16-.46.09,2.85,0-3.17-1.18l-2.73-21.2c-5.35,6.31-12,9.8-19.16,15-7.69,5.56-15.38,11.13-23.33,16.3-3.89,2.53-7.91,4.68-11.94,7-4.43,2.52-8.11,5.92-12.08,9.07-1.31,1-3.83,2.88-5.33,4.1-.41.33-4.22,3.28-2.72,2.3,1.94-1.28-.62.14-1.31.38a15.75,15.75,0,0,0-6.65,4c-3.75,3.81-4.82,8.95-4.34,14.08a27.42,27.42,0,0,0,2.75,9.58q.59,1.34,1.27,2.64,1,2.14.46.85c3.31,8.07,4.47,16.95,7.64,25.07,1.8,4.62,4.48,8.73,6.42,13.26,1.86,4.35,3.41,9,5.33,13.41,3.64,8.37,7.92,16.46,11.37,24.91l19.83-15.25c-4.13-1.9-7.29-5.71-11.72-8.54-4-2.59-8.77-3.79-12.59-6.8-7-5.52-13.38-13.5-20.42-19.63-3.51-3.06-6.1-6.82-9.38-10.09a137.27,137.27,0,0,1-10.18-10.82c-3.09-3.81-4.76-6.91-7.81-10.85a17.23,17.23,0,0,0-3-3.28c-2.8-2.15.81,1.63.37,1.68.53-.06-4.86-8.67-5.42-9.32-5.14-6-13.73-4.26-19.09,0-3.28,2.6-4.7,6.54-6.94,9.92a83.6,83.6,0,0,1-8.34,9.94c-6.73,7.26-14.28,13.7-21,20.93-7,7.48-12.6,16-18.76,24.13a52.8,52.8,0,0,1-8.35,8.9c-1.69,1.38-3.88,2.92-5.68,4.48-.78.68-4.31,3.07-1.72,2.07l17.09,13c-.62-6.64,4.15-14.45,6.4-21.23,2.78-8.4,5.21-16.86,8.59-25,3-7.3,5.83-14.52,9.47-21.53a106.72,106.72,0,0,0,5.64-13.13c1.08-3,3-6.41,3.71-10.56.87-5.34-.44-12.77-6.2-15.25-7.36-3.16-15.08-4-22.86-5.73a157.57,157.57,0,0,1-23.78-7.52c-7.45-3-14.92-5.93-22.33-9-3.51-1.46-7-3.06-10.63-4.29-1.31-.45-2.66-.78-4-1.2s-3.5-1.84-1.48-.18L400,446c10.35,1.43,20.16-.24,30.22-1.37,9.72-1.1,19.28-3,28.9-4.73,8.71-1.53,17.25-3.53,26.08-4.14,9.21-.64,20.36.2,28.54-4.58,15-8.76,1.42-32.11-13.63-23.31a3.29,3.29,0,0,1,1.64-.2q-1.4.11-2.8.13c-1.51.06-3,.15-4.5.27-4.33.34-8.68.58-13,1-9.33.81-18.43,2.88-27.63,4.53-7.84,1.4-15.7,3.17-23.6,4.09-7.09.83-16.28,3.27-23,2.34-6.05-.83-11.94.56-15.25,6.2-2.81,4.81-2.47,12.62,2.11,16.36,6.67,5.45,14.27,7,22,10.15s15.38,6.29,23.1,9.39,15.52,6.36,23.69,8.39c4.1,1,8.24,2,12.38,2.79,2.73.55,7.75.78,9.32,1.46l-6.2-15.25c-1.12,6.85-5.27,14.28-8.72,21.26-4.11,8.3-7.31,17.07-10.8,25.64-3.33,8.19-5.63,16.74-8.48,25.1-3,8.75-7.67,17.12-6.78,26.67.73,7.84,8.17,16.46,17.09,13,5.41-2.09,9.33-5.25,13.64-9,2.72-2.37,8-6.15,11.15-9.8,6.87-8,12.25-17.13,19.2-25,6.75-7.67,14.55-14.3,21.62-21.64a155,155,0,0,0,10.26-11.91,70.6,70.6,0,0,0,4.8-6.46c.58-.95,1-2,1.58-2.93,1-1.68-1.78,1.29.5-.52H524.3l-1.52-2.59,1.19,2.83a18.08,18.08,0,0,0,2.41,4.11,42.1,42.1,0,0,0,3,3.29c.34.36,1.38,1.46.62.4,1.86,2.58,3,5.25,5.1,7.78,1.65,2,3.43,3.93,5.07,6a137,137,0,0,0,10.18,10.82c3.66,3.64,6.61,7.71,10.56,11.09,8.13,7,14.81,15.37,23.38,21.84,4.16,3.14,8.89,4.67,13.23,7.4,3.82,2.41,7.71,6.79,12.4,8.95,5,2.31,10.43,2.58,15-1.06,3.83-3.05,6.88-9.21,4.84-14.19-3.42-8.38-7.31-16.51-11.1-24.72-3.53-7.62-6-15.69-9.87-23.15-3.39-6.56-5.14-13.48-7.29-20.8A95.56,95.56,0,0,0,597,469c-.25-.55-1.64-3.87-1.86-3.83.79-.15-.88,4.43,0,2l-3.47,6q-7.23,3.36-3.69,2.25a15,15,0,0,0,1.89-.64,27.15,27.15,0,0,0,8.37-4.9c3.36-2.73,5.83-4.68,9.63-7.73,6.28-5,13.84-8.68,20.91-13.38,8.17-5.43,16.07-11.24,24-17,7.42-5.33,15.57-9.91,21.55-17,4.94-5.83,5.93-17.5-2.73-21.2-6.82-2.91-12.67-2.78-19.78-1-5.61,1.39-10,1.6-17.12,2.34-14.82,1.54-29.55,4-44.35,5.75a206.12,206.12,0,0,0-21.48,3.3,79.48,79.48,0,0,0-8.78,2.49c-2,.7-3.92,1.52-5.85,2.36l-2,.89q2.13-.87-.06-.06c-3.41-.09.65.49.37.08l8.52,5.69q-.42-1.5-.75-3a17.33,17.33,0,0,0-1.25-4.1c-1.39-2.4.4,4.07-.08,0-.87-7.37-2.94-14.2-4.92-21.32-3.55-12.74-3.8-26.52-5.4-39.61-1.81-14.82-3-29.82-6.46-44.38-1-4.22-2.17-8.52-4.52-12.21a14.68,14.68,0,0,0-25.09.22c-3.56,5.77-2.81,12.93-3.88,17.55a167.13,167.13,0,0,0-3.84,20.8c-.71,7-1.07,13.92-2.24,20.87-1.33,7.91-3.15,15.72-4.61,23.61C495,390.29,494.45,407,493,423.69c-.62,7.27,6.65,13.5,13.5,13.5,7.82,0,12.88-6.2,13.5-13.5Z" transform="translate(-382.95 -32)"/><path class="cls-4" d="M448.91,453.29c10.6.9,21.24,1.29,31.82,2.36,10.33,1,20,3.93,30,6.57A303.59,303.59,0,0,0,542,468.44c2.1.33,9.24,1.8,12.09,2.65,6,1.76,11.3,3.6,17.56,4.22,7.27.72,13.5-6.72,13.5-13.5,0-7.9-6.21-12.78-13.5-13.5-3.4-.34-8.76-3.06-12.9-3.9-5.28-1.08-10.31-2.27-16-2.87a16.42,16.42,0,0,1-5-1.11c-2.66-.9-6.11-1.07-8.34-1.45-4.59-.77-10.28-2.38-15.16-3.76a193.13,193.13,0,0,0-32.66-6.47c-10.88-1.14-21.83-1.53-32.73-2.45-7.27-.61-13.5,6.64-13.5,13.5,0,7.81,6.2,12.88,13.5,13.5Z" transform="translate(-382.95 -32)"/><path class="cls-4" d="M488.31,519c1-3.21,3.43-6.8,5.85-9.7,3.73-4.48,7.58-9,10.47-14,1.39-2.45,2.48-5.13,4.08-7.46,1.28-1.86,3.52-4.35,5.11-6.58,1.92-2.69,3.9-5.32,5.84-8,.42-.59,3-3.68.67-1.14,4-4.39-.25,2.53-6.92.43l-6-3.47a7.63,7.63,0,0,1-.89-8,18.49,18.49,0,0,1-1,1.83c-.71,1.16-1.5,2.26-2.21,3.41-2,3.27-3.56,6.79-5.32,10.2-1.13,2.2-2.18,4.42-3.27,6.64-.56,1.16-1.22,2.26-1.8,3.4q-1.34,2,0,.13,2.18-1.39.3-.46c-6.66,3-8.23,12.68-4.84,18.47,4,6.87,11.78,7.81,18.47,4.84,10.88-4.83,14.35-21.1,20.21-30.35,4.22-6.65,7.18-13.54,4.62-21.45a17,17,0,0,0-24.31-9.79c-6.13,3.34-9.69,9.83-13.73,15.25s-8.16,10.75-11.53,17c-5.6,10.31-16,18.71-19.85,31.69-2.07,7,2.5,14.7,9.43,16.61A13.71,13.71,0,0,0,488.31,519Z" transform="translate(-382.95 -32)"/><path class="cls-4" d="M526.45,434.12c.61-7.95.67-14.52,3.87-21.92-.68,1.58,1.18-2.06,1.11-1.92a29.51,29.51,0,0,0,2.38-5.71,59.78,59.78,0,0,0,1.5-13c.06-1.59.09-3.19.19-4.78.3-4.62-.28.91,0-.34.59-3.09.94-6.25,1.29-9.38.73-6.4.57-14.31-4.78-18.87-4.89-4.17-10.61-5-16.36-2.11-11.64,5.76-9.39,25.12-8.45,35.69.7,7.87,1.55,15.63,2.63,23.45.57,4.08.61,8.2,1.18,12.29s.91,5,.53,8.88h27c.3-4.52,2-9.77,2.45-14.7.2-2,.25-4,.33-6,0-1,0-2.08.17-3.1.34-2.48-.7,2.43.45-1.3l-24.67,3.22c2.24,3.16.1-.73.77,1.24.39,1.15.58,2.36.93,3.52.89,2.89,2.24,5.61,3.32,8.43,2.17,5.68,3.72,11.58,5.51,17.38,2.78,9,15.68,14.06,22.56,6,4.92-5.79,4.94-10.8,5-17.86l-17.09,13q-4.8-3.25-2.12-.76.89,1,1.71,2.06c1.11,1.36,2.18,2.63,3.41,3.89s1.47,1.45.53.51q.43,1,.91,2c1.53,2.78,3.77,4.48,6.25,6.31,6,4.45,14.9.78,18.47-4.84a20.84,20.84,0,0,0,2.63-6.34,35.18,35.18,0,0,0,.61-4.68l.09-1.08q0,4.23-5.53,4.79-2.63,4.37-5.92,3a1.81,1.81,0,0,1-1-.53q-.88-.69,0,.09l.89.83a65.66,65.66,0,0,0,5.85,4.81c3.71,2.8,9.86,2.24,13.63,0a16.34,16.34,0,0,0,7.77-10.16,19,19,0,0,0,0-8.13c-.51-3,.87-2.93-.36,2.21l-13,9.91a25.61,25.61,0,0,1,4.23.18,9.35,9.35,0,1,0,1.22.26l-6-3.47c-1.79-1.76,2,2.2,2.47,2.65a15.05,15.05,0,0,0,6.52,3.61A15.74,15.74,0,0,0,594,451.52c3.72-2.3,5.65-5.81,7.12-9.75.29-.77,1.63-3,.3-.92.24-.38,1.84-2.69,1.45-2.23s1.72-1.66,1.88-1.78c-.8.63-1.69.67-.62.84,1.76.27,4.56-.61,7.86-1.11a45.05,45.05,0,0,0,7.29-1.61,41.32,41.32,0,0,0,5.9-2.44l1.16-.67q3.28-1.68-2,.13c7.28-.36,13.5-5.95,13.5-13.5,0-7-6.18-13.86-13.5-13.5a23.7,23.7,0,0,0-10.42,2.87c-.79.41-1.53,1-2.35,1.35,1.64-.73-1.26.23-1.78.36-1.19.3-2.4.58-3.62.78,1.53-.25.15-.05-.6,0a51.21,51.21,0,0,0-9.3,1.45,27.73,27.73,0,0,0-13.56,9.06,39,39,0,0,0-5.2,7.52,31.9,31.9,0,0,0-1.73,4.16c-1,3.12,1.37-1.88-.24.49l4.84-4.84,1.69-.71h7.18l-1.12-.28,6,3.47c2.42,2.15-1.55-1.79-2.47-2.65a16.15,16.15,0,0,0-8.85-4.09,45.93,45.93,0,0,0-9.73-.78c-5.8.33-11.59,3.94-13,9.91a19.6,19.6,0,0,0-.44,7.27q.17,1.42.41,2.82.85,5,1.13-5.85l4.84-4.84-.9.53h13.63c2.45,1.85-1.33-1.48-1.73-1.84a32.25,32.25,0,0,0-4.6-3.57,19.71,19.71,0,0,0-15.24-2.36,17.25,17.25,0,0,0-11.61,9.92,21.48,21.48,0,0,0-1.63,7.09c-.35,3.36-.69,1,.26-.48l18.47-4.84-.82-.61,4.84,4.84c-1.16-1.71-1.83-3.54-3.08-5.21-1.64-2.2-3.63-4-5.39-6.06-3.76-4.43-7-7.66-12.69-9.74-8.45-3.09-17,4.86-17.09,13,0,1,.07,2.07.12,3.12.06,1.34-.68,2.68,0,.74l3.47-6-.74.87,22.56,6c-2-6.38-3.68-12.86-6.18-19.07-2.34-5.78-3.45-12.84-7.06-17.95-6.63-9.38-21.08-8.44-24.67,3.22-1.62,5.26-1.21,10.62-1.76,16s-2.24,10.77-2.6,16.27c-.48,7.28,6.55,13.5,13.5,13.5,7.89,0,12.78-6.21,13.5-13.5a43.46,43.46,0,0,0-.68-10.53,60.49,60.49,0,0,1-.66-6.89c-.47-6.82-1.9-13.52-2.4-20.33-.46-6.31-1.25-12.57-1.16-18.9,0-1.34,0-2.67.11-4q0-.79.1-1.58.14-1.56-.19,1l.18-1q1.47-5-4.56,5.22l-16.36-2.11a9.21,9.21,0,0,1-2.84-6.6l0,.93c-.07,1.05,0,2.12-.11,3.17s-.23,2.29-.37,3.42c.41-3.31,0,.1-.12.62A169.06,169.06,0,0,0,508,396.42c.07-1.74-.86,2.64.08.23-.48,1.22-1.31,2.36-1.87,3.55a75.39,75.39,0,0,0-4.1,11.49c-2.07,7.3-2.12,14.92-2.7,22.43-.56,7.28,6.61,13.5,13.5,13.5,7.77,0,12.94-6.2,13.5-13.5Z" transform="translate(-382.95 -32)"/><path class="cls-4" d="M538,483.46a20.88,20.88,0,0,1,3.78.77c-2.25-.74.19,1.09-1.35-.61,1.78,2,2.2,2.67,4.48,5.48,4.19,5.15,9.53,8.68,14.17,13.3,1.95,1.94,3.65,4,5.76,5.78,2.31,2,2.85,2.2,3.93,4.11,3,5.24,5.12,10.8,9.92,14.76,5.18,4.27,12.14,5.5,17.73,1.06,4.83-3.85,7.48-11.88,3.48-17.42-6.14-8.48-9.68-18-14.55-27.15-.5-.94-1-1.88-1.51-2.82s-.8-2.14-.3-.54c-.5-1.59-.86-3.21-1.4-4.79-2.11-6.07-6.28-11.71-13-13-7.14-1.43-14.58,2-16.61,9.43-1.83,6.65,2.25,15.17,9.43,16.61a8.32,8.32,0,0,1-5.71-5.28q.35,1.09.64,2.21a43.85,43.85,0,0,0,2.24,6.13c1.52,3.42,3.45,6.63,5,10,3.67,7.95,7.23,15.71,12.39,22.85L597.74,508c-.33-.27-2.62-2.92-1.46-1.24a31.11,31.11,0,0,1-2-3.65,55.33,55.33,0,0,0-4.14-7.33,44.49,44.49,0,0,0-7.34-7.55c-2.48-2.21-4.46-4.85-7-7a102.33,102.33,0,0,1-14.2-14.36,25.89,25.89,0,0,0-16.42-9.45c-7.22-1-14.49,1.74-16.61,9.43-1.73,6.29,2.16,15.62,9.43,16.61Z" transform="translate(-382.95 -32)"/></g><g id="Layer_4" data-name="Layer 4"><path class="cls-5" d="M853.79,430.6l11-78.07,5.29-37.65c.87-6.19,1.77-12.35,2.26-18.58.41-5.23.34-7.59,2.3-12.6L858,293.12c-1.35-.43-4.71-3.07-2.11-.79-2.29-2-.09.17.58,1.48.34.66.65,1.34,1,2-1.13-2.51-.07-.1.15.56.57,1.67,1.15,3.33,1.67,5,2.17,7,4.32,14,6.75,20.93,3.52,10,7,19.85,9.54,30.19,2.31,9.28,7,17.78,9,27.14,1,4.74,1.86,9.46,3,14.17.58,2.37,1.18,4.73,1.71,7.11.26,1.19.52,2.38.75,3.57,0,.19.51,5.24.46,2.68.07,3.79-.09,7.56,1.07,11.23a16.52,16.52,0,0,0,16,11.38,41.54,41.54,0,0,0,7.14-.88c.76-.13,1.52-.31,2.28-.43-.94.15-3.86.12-.08.22a112.51,112.51,0,0,0,16.06-.51c5.53-.66,10.69-2.48,16.13-3.45,4.58-.82,9.39-.48,14.06-.87,11.68-1,23.21-3.46,34.93-4.48,12.4-1.08,24.93-2.31,36.94-5.69l-16.61-16.61c-.52,2.88.5-.84.59-.73a32.75,32.75,0,0,1-3,2.62c-2.61,2.12-4.94,4.49-7.47,6.69a141.25,141.25,0,0,1-16,11.78c-6.21,4-13.07,6.79-19.75,9.89s-13.25,6.7-20.12,9.54c-6.54,2.71-14,4.25-18.94,9.61-6.15,6.64-4.69,15-2.54,22.82,4.28,15.7,7.24,31.61,10.35,47.56,1.78,9.09,3.74,18.14,5.68,27.2.95,4.43,1.66,9,3.12,13.29,1,3,3.06,8,3.14,9.81l4-9.55q4.17-4,9-3,2.12.38.53,0c1.18.26,2.55,1.37.64.22-1.56-.94-3.06-1.9-4.57-2.93-2.09-1.43,1,.86-.24-.17-.68-.56-1.37-1.11-2-1.68-1.33-1.12-2.64-2.27-3.93-3.43-7.56-6.8-14.8-13.87-21.65-21.38a295.33,295.33,0,0,1-23.16-29.15c-7.18-10.18-13-21.93-22.48-30.23-3.41-3-8.54-5.23-13.13-3.47C864,467.07,859.43,477.86,852.5,488c-7.95,11.6-17.76,22.33-27.39,32.54S805.33,540.88,795,550.39c-4.71,4.33-9.45,8.7-12.78,14.23-.92,1.53-1.67,3.18-2.55,4.73a24.11,24.11,0,0,0-1.71,2.8q-.87,1.27.59-.74-5.46,5.16,11.78-1.1l4.84,4.84c.34.58.11,7.22,1,5.58a7.58,7.58,0,0,0,.38-1.75c.3-1.53.51-3.07.76-4.61.67-4.12,1.39-8.24,2.2-12.34a210.7,210.7,0,0,1,5.35-21.44c4.8-15.46,12.28-29.93,18.33-44.91,1.25-3.09,2.21-6.22,3.22-9.4.47-1.48.11-.61,0-.27.33-.94.81-1.9,1.18-2.8A20.21,20.21,0,0,0,829.4,476c.36-8.28-4.82-15-10.79-20.2-5.66-5-12.17-8.74-18.06-13.38-1-.79-4.1-3.65-5.93-5.14-3.34-2.72-6.79-5.31-10.31-7.78-6.12-4.28-13.63-8.44-18.86-12.82-2.95-2.47-5.63-5.23-8.46-7.83-1.11-1-2.23-2-3.33-3.06-1.89-1.77.28.24.24,1.71L740.4,421c9.28.44,18.22,3.21,27.19,5.42,10.31,2.54,20.8,4.25,31.28,5.89,10.11,1.58,20.35,2.77,30.29,5.27,4.68,1.18,9.32,2.52,14.08,3.33,2.57.44,5.16.8,7.75,1a16.91,16.91,0,0,0,2.17.12q1.19.09-.14,0-3.44,0-5.48-3.76c4,6.08,11.94,8.66,18.47,4.84,6-3.54,8.87-12.35,4.84-18.47-3.89-5.91-9.12-8.63-16-9.42-4.74-.55-5.29-.37-10.62-1.66-11.4-2.75-22.69-4.9-34.29-6.69s-23-3.52-34.27-6.27c-11.67-2.85-23.19-6-35.26-6.6-7.44-.35-13.3,6.47-13.5,13.5-.23,7.8,4.06,14.14,9.61,19.2,5,4.52,9.71,9.15,15.08,13.2,10,7.53,20.52,13.84,30.13,21.8,5,4.12,10.44,7.51,15.59,11.4,1.66,1.25,3.39,3.29,5.56,5,4.13,3.31.63.93.69.88-3.05,2.83,1.08-10.6-1.08-5.24-2.34,5.84-4.1,11.85-6.53,17.66-2.93,7-6.11,13.91-9.1,20.89a212.88,212.88,0,0,0-13.41,42.56c-1.2,6-2.07,12.08-3.22,18.1-1.77,9.26,0,19.53,10.53,22.63,6.63,2,13.08-.89,17.49-5.81,3.31-3.69,4.95-8.1,7.63-12.13,2.13-3.2,7.15-7.07,10.56-10.35,5.2-5,10.17-10.25,15.35-15.27a407.69,407.69,0,0,0,32.78-35.75c4.89-6,9.84-12.12,13.85-18.79,1.47-2.45,3-4.88,4.51-7.3,2-3.13-1.46,1.06,1.1-1.4,2.2-2.11,1.78-1.27-.56-.37L870.32,485c8.76,7.65,14.47,19.48,21.53,29.38a321.94,321.94,0,0,0,26.5,32.6A281.24,281.24,0,0,0,940,567.83c6.75,5.85,15.06,13.32,24.54,13.59,8.26.24,15.57-5.74,15.86-14.23.25-7.45-3.51-13.87-5.23-20.88-3.33-13.62-6-27.53-8.58-41.32-2.69-14.4-5.59-28.7-9.45-42.84-.28-1-.6-2.08-.86-3.13l-.3-1.2q-.5-2.48.07.56l-2.79,6.56a3.51,3.51,0,0,1-1.93,1.21c.21-.51,3.54-1.3,4.21-1.56,7-2.67,13.85-5.62,20.56-8.88,13-6.34,26-12,37.75-20.49a219.94,219.94,0,0,0,18.29-14.78c5.19-4.66,10.92-8.71,12.25-16.14,1.75-9.8-6-19.6-16.61-16.61-9.76,2.75-19.69,3.85-29.77,4.73-11.4,1-22.58,3-33.92,4.39-5,.63-10.06.31-15.06.85-6.17.66-11.86,2.77-17.93,3.7-4.28.66-8.95.31-13.4.36a50.8,50.8,0,0,0-8,.76c-.49.08-3.14,1.06-1.69.36q1.16-.11,0,0-3.06.06,3.73,1.1l4.84,4.84c1,1.49.65,4.54.8,1.23a31.38,31.38,0,0,0,0-3.2,81.69,81.69,0,0,0-2.14-13c-1.58-7.1-3.24-14.15-4.73-21.27s-4.69-13.59-7-20.41c-2.39-7-3.44-14.36-5.93-21.34-4.26-11.94-8.45-23.84-12.15-36-3.41-11.17-8.11-23.79-20.27-27.69-7.47-2.39-14,2.87-16.61,9.43-3.84,9.79-3.23,21.72-4.55,31.18l-5.29,37.65-11,78.07c-1,7.21,1.76,14.5,9.43,16.61,6.32,1.74,15.59-2.16,16.61-9.43Z" transform="translate(-382.95 -32)"/><path class="cls-5" d="M796.34,447.23c3.32.47,6.82.83,10,2.06-1.47-.57,2.77,1.75,3.33,2.15.73.52,2.08,1.55,2.65,2,6.94,5.36,10,11.78,17.33,16.86,5,3.47,10.55,8.67,17.19,11.68,7.46,3.38,15.74,5.73,24,5.68,6.07,0,11.56-1.83,14.66-7.51,2.36-4.3,2.48-9.16,1.61-13.87-1.13-6.12-4.31-11.79-7.14-17.27-.43-.84-.87-1.67-1.28-2.52s-.42-.91,0,0q-.53-1.31-1-2.63c-1.23-3.21-2.39-6.44-3.69-9.63-3.08-7.51-6.54-14.59-12.44-20.34-7.87-7.67-18.87-3.27-22.56,6s-1.43,20,3.38,28.39a56.32,56.32,0,0,0,8.12,10.27,38.13,38.13,0,0,1,3.38,3.67c-1-1.44,1.1,2.11,1.32,2.44,7.25,10.77,22.08,11.24,28.57-.62,4.06-7.42,4.61-16.18,3.86-24.44-1.51-16.76-1.7-33.53-2.54-50.35-.44-8.87-1-17.74-1.78-26.59-.36-4-.94-8-1.61-11.94q-.38-2.5-.13-.75-.16-1.42-.21-2.85.15-2.56-.25-.36a9.75,9.75,0,0,1,.67-2.25l-22.56,6c-2.8-3.56-1.6-1.65-1.23.64.32,1.95.63,3.9.93,5.85.54,3.58,1.06,7.16,1.7,10.73a169.07,169.07,0,0,1,2.08,19.27c.39,6.41.7,12.81.88,19.23.21,7.25,1.82,13.93,3.38,20.94a66.08,66.08,0,0,0,7.05,19.2c3.39,5.83,7.83,11,12,16.24a94.46,94.46,0,0,1,8.64,13.78c.71,1.29,1.53,2.6,2.13,3.94-.82-1.83.45,2,.49,2.2a24,24,0,0,0,5.39,10.64c6.88,8.44,19.62,2.74,22.56-6,4.11-12.12,2.06-24.72-1.68-36.64A156.43,156.43,0,0,1,919,434.87c-.53-2.64-.94-5.3-1.49-7.93-.23-1.11-.47-2.21-.78-3.31,0-.11-.92-3.92-.86-2.49l-13.5,13.5c.42,0,2.36.23,1.06,0,2.37.42.23,0,2.69,1s4.79,1.86,7.28,2.64a82.33,82.33,0,0,0,18.13,3.81A49.45,49.45,0,0,0,948,440.52a50,50,0,0,0,7.7-2.95c.47-.21,2.61-1.26,2.73-1.33-.26.15,2.66-.58.5-.4l-9.55-23c-1.75,2.14-1.92,2.13-5,3.71-2.5,1.29-5.1,2.38-7.63,3.62-6.48,3.16-12.89,6.44-19.45,9.45-5.55,2.55-12.25,3.07-16.92,7.71-8.17,8.13-3.37,18.2,1.85,26.37,7.13,11.18,15.14,21.17,19.88,33.6a156,156,0,0,1,5.87,19.36c.63,2.61,1.37,5.14,2.22,7.68.3.91.57,1.84.87,2.75,1.06,3.22-.36-1.06.14-2.4l3.47-6,1.69-1.27,6.81-1.84-.84.11,9.55,4c-5.19-5.13-11.38-10.25-15.54-15.93a60.27,60.27,0,0,1-6-9.49,21.6,21.6,0,0,1-.94-3.64,45.26,45.26,0,0,0-1.6-6.35c-5.64-15.58-20.68-25.31-33.49-34.65a58.52,58.52,0,0,1-5.86-5.79,21.75,21.75,0,0,0-14.18-6.76c-8.36-.67-15.58,4-21.44,9.48-4.52,4.24-8.2,9-13.44,12.37-7,4.53-14.65,8-21.47,12.72-8.88,6.19-11.79,14.45-15.17,24.25-1.36,3.95-2.82,9.23-4.28,12.32-2.51,5.31-4.61,9.48-5.41,15.42-.89,6.67,6.94,14.3,13.5,13.5,11.72-1.43,20-11.34,27.17-20s13.18-18.78,21.14-26.24c5.32-5,5-14.05,0-19.09a13.72,13.72,0,0,0-19.09,0c-6.95,6.52-12.16,15.55-17.84,22.28-3.14,3.71-6.09,7.61-9.57,11-1.23,1.2-2.46,2.37-3.66,3.6a26.33,26.33,0,0,0-2.34,2.38q-.93.82-.11.19a5.53,5.53,0,0,1,4.3-1.09l13.5,13.5c-.43,3.22,1.63-1.58,2.06-2.43a79.08,79.08,0,0,0,3.78-9.81c1.71-5.06,3.17-10.38,5.21-15.31-.58,1.4,2.34-2.81.44-1.13a37.48,37.48,0,0,1,5.75-3.54c5.22-3.09,10.63-5.87,15.72-9.18a71.63,71.63,0,0,0,12.1-9.56c1.5-1.53,2.92-3.13,4.41-4.66.62-.64,1.25-1.29,1.9-1.91s1.29-1.22,2-1.8q-1.33.94-.2.16c1.64-1.65,1.58.19.42-.53l1.06-.29-1.46.3-3.61-1q-1.48-1.27.21.41c.51.68,1.12,1.39,1.69,2,4,4.29,9.13,7.23,13.74,10.74,2.4,1.83,6.68,5.25,9.65,7.84a54.57,54.57,0,0,1,4.62,4.47,12.05,12.05,0,0,1,3.06,4.88c-.69-1.81.22,1.53.31,1.92.31,1.4.49,2.82.83,4.21a37.45,37.45,0,0,0,3.32,8.41,93.59,93.59,0,0,0,10.67,15.58,128.31,128.31,0,0,0,10.29,10.64c2.34,2.24,4.73,5.12,7.54,6.77a15.11,15.11,0,0,0,14.78-.27c11.52-6.67,7-18.61,4.35-28.52-3.49-13.08-7.27-25.67-13.39-37.85-5.85-11.65-15.33-21.09-20.47-33.08v13.63c-.69,1-6.27,3.44-3.23,3.38a10.76,10.76,0,0,0,3.07-.82c3-1,5.87-2.4,8.73-3.71q7.32-3.34,14.52-6.94c8.25-4.13,18.58-7.44,24.6-14.79,3.5-4.27,5.14-9.39,2.79-14.75-2-4.58-7-8.73-12.34-8.3-6.12.5-10.58,2.81-16.14,5.08q-1.31.65-.22.06l-1.74.5c-1.14.23-2.27.61-3.43.74a38.9,38.9,0,0,1-5.81-.12c-10.75-1.21-18.38-7.87-29.16-7.47-7.05.26-13.82,6-13.5,13.5.23,5.38,2.13,10.37,3.1,15.63a125.45,125.45,0,0,0,3.82,15.72c2.95,9.17,6.54,18.06,3.35,27.48l22.56-6c2.73,3.35,2,2.57,1.25-.09a39.53,39.53,0,0,0-2.34-6c-1.16-2.52-2.56-4.93-3.9-7.37a116.38,116.38,0,0,0-11.67-17.05c-3.46-4.31-6.4-7.64-9-12.91-2.48-5-3.39-11.62-4.82-17.31-1.12-4.46-.7-10.69-1-16.2-.41-7-.73-14.1-1.44-21.12-.76-7.48-2.18-14.82-3.31-22.24-1.27-8.34-1.84-15.46-7.22-22.31-6.87-8.74-19.47-2.44-22.56,6-1.64,4.46-1.57,9.45-1,14.1.35,2.87.8,5.71,1.26,8.56,0,.27.41,3,.23,1.39-.22-2,.2,2.76.24,3.17,1,11.47,1.57,23,2.09,34.47.47,10.52,0,21.21,1.1,31.68.45,4.46,1.13,8.91,1.25,13.39,0,1.23,0,2.44,0,3.67,0,.71-.33,2.1,0,.65a19.19,19.19,0,0,1-.71,2.68c.7-1.9-1,1.48-1.17,1.67l11.66-6.69c4.56.07,9.3,7,6.12,2a48.66,48.66,0,0,0-3.79-5c-1.75-2.08-4.09-4.05-5.65-6-3.19-4-3.83-6.18-2.28-10l-22.56,6s2.28,2.43,1.69,1.68,1.16,1.8,1.33,2.09a50.1,50.1,0,0,1,3.27,6.52c-.61-1.47.43,1.19.59,1.6.44,1.15.87,2.3,1.3,3.45.83,2.21,1.67,4.42,2.57,6.61,1.6,3.87,3.48,7.51,5.35,11.25q.69,1.39,1.35,2.79c-1-2.19.1.24.26.74.28.9.53,1.79.78,2.7l-.21-1.61q-.13,3.68,1.15-3.63l11.66-6.69a29.74,29.74,0,0,1-5.5,0c1.9.19-2.37-.49-2.35-.49a59.74,59.74,0,0,1-5.77-1.7c-2.4-.81.35.51-1.77-.8a32.35,32.35,0,0,1-2.8-1.64q-2-1.4-.7-.51c-1.21-1-2.35-2.06-3.56-3a59.55,59.55,0,0,0-5.88-4.14c-1.76-1.11-1.53-.8-2.53-2.32-8.06-12.28-23.69-22.49-39.1-24.68-7.21-1-14.5,1.77-16.61,9.43-1.74,6.33,2.16,15.57,9.43,16.61Z" transform="translate(-382.95 -32)"/><path class="cls-5" d="M850.65,394.93l-2.51,17.82c-1,7,1.69,14.84,9.43,16.61,6.37,1.45,15.56-2,16.61-9.43l2.51-17.82c1-7-1.69-14.84-9.43-16.61-6.37-1.45-15.56,2-16.61,9.43Z" transform="translate(-382.95 -32)"/><path class="cls-5" d="M838.76,435.72c-.6,4.08-2.27,9.1.16,12.91,2.78,4.36,9.27,5.79,14,6.55,13.32,2.17,27.34,0,40.36-3,15.27-3.51,30.68-8,44.79-14.9,8.07-3.94,16.48-5.57,25.31-6.8,4.85-.68,9.72-1,14.59-1.5,3.71-.36,7.12-1.9,10.74-2.27,1.9-.2,1.92-3.2,0-3-3.09.32-5.83,1.7-8.94,2.1-3.68.47-7.41.61-11.11,1a149.83,149.83,0,0,0-20.22,3.32c-6.46,1.63-12.08,4.84-18.16,7.46a192.19,192.19,0,0,1-21.51,7.36c-13.67,4-27.76,7.54-42.07,8-6,.19-12.11,0-17.87-1.71-3.37-1-7.31-2.46-8-6.31-.5-2.65.51-5.76.9-8.39.28-1.89-2.61-2.7-2.89-.8Z" transform="translate(-382.95 -32)"/><path class="cls-5" d="M829.12,550.24c-.52,4,.11-.56.25-1.33.25-1.33.67-2.61.95-3.93q.76-2.13-.3.42a17.63,17.63,0,0,1,.93-1.76q1.23-1.84-.32.34a13.51,13.51,0,0,1,1.5-1.39c5.37-4.62,5.1-14.41,0-19.09-5.72-5.25-13.36-4.93-19.09,0-7.92,6.82-9.64,17-10.92,26.74-.92,7,6.86,13.8,13.5,13.5,8.1-.36,12.52-6,13.5-13.5Z" transform="translate(-382.95 -32)"/><path class="cls-5" d="M783.43,426.32a8,8,0,0,0,1,2.72,15,15,0,0,0,1.43,3.1,38.69,38.69,0,0,0,5.25,5.58c1.38,1.35,3.5-.77,2.12-2.12A42,42,0,0,1,788.7,431a10.16,10.16,0,0,1-1.38-2.72c-.21-.58-.86-1.37-.89-1.92-.11-1.92-3.11-1.93-3,0Z" transform="translate(-382.95 -32)"/><path class="cls-5" d="M803.07,475.94c-.08,1.83-1.61,3.3-1.55,5.17s3.06,1.93,3,0a7.11,7.11,0,0,1,.84-2.41,8.9,8.9,0,0,0,.71-2.76c.08-1.93-2.92-1.93-3,0Z" transform="translate(-382.95 -32)"/><path class="cls-5" d="M961.19,426c8.35,0,16.74-.69,25.05-.52v-3a80.4,80.4,0,0,0-19.33,2.61c-2.67.65-8.4,2.29-8,6.07a1.52,1.52,0,0,0,1.9,1.45c10.62-3.77,19.84-10.53,29.7-15.74l-1.82-2.36c-6.3,5.61-15.41,9.61-23.62,11.15-1.64.31-1.29,3.14.4,2.95,4.45-.5,8.81-1.43,13.29-1.82,2.63-.22,6.41.3,8.73-1a1.52,1.52,0,0,0,0-2.59c-2.49-1.63-5.53-1.62-8.09-3.08l-.36,2.74c3.39-.88,7.36-.31,10.84-.76a1.5,1.5,0,0,0,0-3,66.77,66.77,0,0,0-20.75,1.4,1.51,1.51,0,0,0,0,2.89,40.27,40.27,0,0,0,9,.83v-3h-1.71a1.5,1.5,0,0,0,0,3h1.71a1.5,1.5,0,0,0,0-3,36.3,36.3,0,0,1-8.25-.72v2.89a64.3,64.3,0,0,1,19.95-1.29v-3c-3.81.49-7.94-.09-11.63.87a1.52,1.52,0,0,0-.36,2.74c2.54,1.46,5.62,1.47,8.09,3.08v-2.59c-2.1,1.21-7.45.62-9.78.84-3.61.34-7.12,1.19-10.72,1.6l.4,2.95a53.91,53.91,0,0,0,24.94-11.92c1.31-1.17-.36-3.13-1.82-2.36-9.62,5.08-18.62,11.76-29,15.44l1.9,1.45c-.43-4.28,22-5.7,24.36-5.69a1.5,1.5,0,0,0,0-3c-8.32-.18-16.7.55-25.05.52a1.5,1.5,0,0,0,0,3Z" transform="translate(-382.95 -32)"/><path class="cls-5" d="M923.69,445.47c1.53,2,1.56,7.72,1.33,9.92l2.8-.76c-.51-1,3-2.85,3.61-2.65,2,.62-4,6.54-4.54,6.95l1.82.23c-1.39-1.76-.2-6.93.23-8.56,1-4,2.09-5.13,2.49.23a34,34,0,0,1-.82,9.34c-.33,1.61-.89,6-2.28,7.16l2.36.3a38.3,38.3,0,0,1-3.11-15.47l-2.26,1.3c1.64.75,2.44,5.28,2.61,6.56.25,1.85,3,2,3,0s-.1-3.91-.24-5.89l-2.8.76c1.46,2.91,1.1,6.52,2.36,9.52a1.51,1.51,0,0,0,2.95-.4c.43-4.41-.07-9-.4-13.43-.18-2.35-1.65-7.48-.68-9.74H929.5c3.66,6.09,5.41,13,7.22,19.77,1.62,6.09,2.11,12.91,4.43,18.74.49,1.23,2.56,1.6,2.89,0,.51-2.49.6-5,1-7.54.23-1.58,0-4,3-2.36.72.41,1.7,2.18,2.25,2.84a1.51,1.51,0,0,0,2.51-1.46c-.41-1.15-.39-4.56-1-5.35-1.23-1.66-.12,2.07,0,2.32.71,1.77,3.61,1,2.89-.8s-1.07-3.61-2.36-5.1a1.49,1.49,0,0,0-1.46-.39c-3.74,1-1.86,7.64-1,10.11l2.51-1.46c-1.69-2.06-5-7-8.28-4.58-3,2.27-2.26,9.82-2.91,13h2.89c-2.53-6.34-3.09-13.8-4.89-20.41s-3.56-13-7.07-18.81c-.52-.87-2.13-1.08-2.59,0-1.09,2.53-.13,6.27.08,8.91.41,5.17,1.09,10.6.59,15.78l2.95-.4c-1.37-3.26-1.07-7.05-2.66-10.24a1.51,1.51,0,0,0-2.8.76c.14,2,.22,3.91.24,5.89h3c-.37-2.82-1.1-7.79-4.09-9.15a1.52,1.52,0,0,0-2.26,1.3,41.29,41.29,0,0,0,3.52,17,1.52,1.52,0,0,0,2.36.3c2.95-2.52,3.45-9.73,3.82-13.3.29-2.75,1.13-11.2-2.43-12.72-6.27-2.68-7.83,14.57-5.25,17.84a1.5,1.5,0,0,0,1.82.23c3.71-2.57,7.9-7.47,5.86-12.21a1.5,1.5,0,0,0-1.3-.74,12.07,12.07,0,0,0-7.51,2.8c-1.35,1.4-1,3.16-.23,4.78.74,1.46,2.65.58,2.8-.76.37-3.47,0-9.24-2.2-12-1.18-1.53-3.29.61-2.12,2.12Z" transform="translate(-382.95 -32)"/></g><g id="Layer_5" data-name="Layer 5"><text class="cls-6" transform="translate(105.08 404.25)">interface <tspan x="12.41" y="28.8">poetry</tspan></text><text class="cls-6" transform="translate(297.91 440.25)">web <tspan x="-22.31" y="28.8">editorial</tspan></text><text class="cls-6" transform="translate(455.11 390.25)">friction <tspan x="11.18" y="28.8">point </tspan><tspan x="19.71" y="57.6">app</tspan></text></g></svg>